<?xml version="1.0" encoding="UTF-8" standalone="no"?>
<!DOCTYPE svg PUBLIC "-//W3C//DTD SVG 1.1//EN"
 "http://www.w3.org/Graphics/SVG/1.1/DTD/svg11.dtd">
<!-- Generated by graphviz version 2.40.1 (20161225.0304)
 -->
<!-- Title: %3 Pages: 1 -->
<svg width="1172pt" height="559pt"
 viewBox="0.00 0.00 1172.00 559.00" xmlns="http://www.w3.org/2000/svg" xmlns:xlink="http://www.w3.org/1999/xlink">
<g id="graph0" class="graph" transform="scale(1 1) rotate(0) translate(4 555)">
<title>%3</title>
<polygon fill="#ffffff" stroke="transparent" points="-4,4 -4,-555 1168,-555 1168,4 -4,4"/>
<g id="clust1" class="cluster">
<title>cluster_build_compiler</title>
<polygon fill="none" stroke="#000000" stroke-dasharray="1,5" points="504,-303 504,-467 770,-467 770,-303 504,-303"/>
<text text-anchor="middle" x="637" y="-451.8" font-family="Times,serif" font-size="14.00" fill="#000000">travis:</text>
<text text-anchor="middle" x="637" y="-436.8" font-family="Times,serif" font-size="14.00" fill="#000000">compiler and targets</text>
</g>
<g id="clust5" class="cluster">
<title>cluster_travis_ci_targets</title>
<polygon fill="none" stroke="#000000" stroke-dasharray="1,5" points="738,-138 738,-228 927,-228 927,-138 738,-138"/>
<text text-anchor="middle" x="832.5" y="-212.8" font-family="Times,serif" font-size="14.00" fill="#000000">travis:</text>
<text text-anchor="middle" x="832.5" y="-197.8" font-family="Times,serif" font-size="14.00" fill="#000000">ci_targets</text>
</g>
<g id="clust8" class="cluster">
<title>cluster_legend</title>
<polygon fill="none" stroke="#000000" stroke-dasharray="1,5" points="978,-138 978,-543 1156,-543 1156,-138 978,-138"/>
<text text-anchor="middle" x="1067" y="-527.8" font-family="Times,serif" font-size="14.00" fill="#000000">Legend</text>
</g>
<!-- git_compiler -->
<g id="node1" class="node">
<title>git_compiler</title>
<g id="a_node1"><a xlink:href="https://github.com/kaitai-io/kaitai_struct_compiler" xlink:title="git:\ncompiler" target="_blank">
<polygon fill="#ffffba" stroke="transparent" points="449,-513 369,-513 369,-475 449,-475 449,-513"/>
<text text-anchor="middle" x="409" y="-497.8" font-family="Times,serif" font-size="14.00" fill="#000000">git:</text>
<text text-anchor="middle" x="409" y="-482.8" font-family="Times,serif" font-size="14.00" fill="#000000">compiler</text>
</a>
</g>
</g>
<!-- build_compiler_appveyor -->
<g id="node10" class="node">
<title>build_compiler_appveyor</title>
<g id="a_node10"><a xlink:href="https://ci.appveyor.com/project/GreyCat/kaitai-struct" xlink:title="appveyor:\nbuild_compiler" target="_blank">
<polygon fill="#d0d0d0" stroke="transparent" points="306.5,-422 183.5,-422 183.5,-384 306.5,-384 306.5,-422"/>
<text text-anchor="middle" x="245" y="-406.8" font-family="Times,serif" font-size="14.00" fill="#000000">appveyor:</text>
<text text-anchor="middle" x="245" y="-391.8" font-family="Times,serif" font-size="14.00" fill="#000000">build_compiler</text>
</a>
</g>
</g>
<!-- git_compiler&#45;&gt;build_compiler_appveyor -->
<g id="edge2" class="edge">
<title>git_compiler&#45;&gt;build_compiler_appveyor</title>
<path fill="none" stroke="#000000" d="M374.6202,-474.9234C349.473,-460.9698 315.1818,-441.9424 288.1861,-426.963"/>
<polygon fill="#000000" stroke="#000000" points="289.7768,-423.843 279.3345,-422.0515 286.3804,-429.9639 289.7768,-423.843"/>
</g>
<!-- build_compiler -->
<g id="node14" class="node">
<title>build_compiler</title>
<polygon fill="#d3d3d3" stroke="transparent" points="635.5,-421 512.5,-421 512.5,-385 635.5,-385 635.5,-421"/>
<text text-anchor="middle" x="574" y="-399.3" font-family="Times,serif" font-size="14.00" fill="#000000">build_compiler</text>
</g>
<!-- git_compiler&#45;&gt;build_compiler -->
<g id="edge1" class="edge">
<title>git_compiler&#45;&gt;build_compiler</title>
<path fill="none" stroke="#000000" d="M443.5894,-474.9234C469.3993,-460.6888 504.7832,-441.1741 532.182,-426.0633"/>
<polygon fill="#000000" stroke="#000000" points="534.076,-429.0157 541.1423,-421.1215 530.6954,-422.8861 534.076,-429.0157"/>
</g>
<!-- git_tests -->
<g id="node2" class="node">
<title>git_tests</title>
<g id="a_node2"><a xlink:href="https://github.com/kaitai-io/kaitai_struct_tests" xlink:title="git:\ntests" target="_blank">
<polygon fill="#ffffba" stroke="transparent" points="832,-422 778,-422 778,-384 832,-384 832,-422"/>
<text text-anchor="middle" x="805" y="-406.8" font-family="Times,serif" font-size="14.00" fill="#000000">git:</text>
<text text-anchor="middle" x="805" y="-391.8" font-family="Times,serif" font-size="14.00" fill="#000000">tests</text>
</a>
</g>
</g>
<!-- build_formats -->
<g id="node16" class="node">
<title>build_formats</title>
<polygon fill="#d3d3d3" stroke="transparent" points="762,-347 646,-347 646,-311 762,-311 762,-347"/>
<text text-anchor="middle" x="704" y="-325.3" font-family="Times,serif" font-size="14.00" fill="#000000">build_formats</text>
</g>
<!-- git_tests&#45;&gt;build_formats -->
<g id="edge6" class="edge">
<title>git_tests&#45;&gt;build_formats</title>
<path fill="none" stroke="#000000" d="M778.99,-383.9432C766.2117,-374.5809 750.6732,-363.1962 737.0615,-353.2233"/>
<polygon fill="#000000" stroke="#000000" points="739.0124,-350.3138 728.8772,-347.2269 734.8752,-355.9604 739.0124,-350.3138"/>
</g>
<!-- build_ruby_1_9 -->
<g id="node17" class="node">
<title>build_ruby_1_9</title>
<polygon fill="#d3d3d3" stroke="transparent" points="823.5,-182 746.5,-182 746.5,-146 823.5,-146 823.5,-182"/>
<text text-anchor="middle" x="785" y="-160.3" font-family="Times,serif" font-size="14.00" fill="#000000">ruby/1.9</text>
</g>
<!-- git_tests&#45;&gt;build_ruby_1_9 -->
<g id="edge7" class="edge">
<title>git_tests&#45;&gt;build_ruby_1_9</title>
<path fill="none" stroke="#000000" d="M803.3971,-383.8456C799.8824,-341.8444 791.4834,-241.4771 787.3623,-192.2294"/>
<polygon fill="#000000" stroke="#000000" points="790.8496,-191.9309 786.5278,-182.2577 783.874,-192.5147 790.8496,-191.9309"/>
</g>
<!-- build_ruby_2_3 -->
<g id="node18" class="node">
<title>build_ruby_2_3</title>
<polygon fill="#d3d3d3" stroke="transparent" points="918.5,-182 841.5,-182 841.5,-146 918.5,-146 918.5,-182"/>
<text text-anchor="middle" x="880" y="-160.3" font-family="Times,serif" font-size="14.00" fill="#000000">ruby/2.3</text>
</g>
<!-- git_tests&#45;&gt;build_ruby_2_3 -->
<g id="edge8" class="edge">
<title>git_tests&#45;&gt;build_ruby_2_3</title>
<path fill="none" stroke="#000000" d="M832.1798,-387.0584C865.1034,-365.9811 918.8986,-325.4261 941,-274 953.9578,-243.8495 930.6809,-211.1906 909.2461,-189.3586"/>
<polygon fill="#000000" stroke="#000000" points="911.4093,-186.5797 901.8035,-182.1097 906.5252,-191.5943 911.4093,-186.5797"/>
</g>
<!-- git_ci_artifacts -->
<g id="node3" class="node">
<title>git_ci_artifacts</title>
<g id="a_node3"><a xlink:href="https://github.com/kaitai-io/ci_artifacts" xlink:title="git:\nci_artifacts" target="_blank">
<polygon fill="#baffc9" stroke="transparent" points="881,-110 783,-110 783,-72 881,-72 881,-110"/>
<text text-anchor="middle" x="832" y="-94.8" font-family="Times,serif" font-size="14.00" fill="#000000">git:</text>
<text text-anchor="middle" x="832" y="-79.8" font-family="Times,serif" font-size="14.00" fill="#000000">ci_artifacts</text>
</a>
</g>
</g>
<!-- dashboard -->
<g id="node11" class="node">
<title>dashboard</title>
<g id="a_node11"><a xlink:href="https://ci.kaitai.io/" xlink:title="https://ci.kaitai.io/" target="_blank">
<polygon fill="#ffb86c" stroke="transparent" points="905.5,-36 758.5,-36 758.5,0 905.5,0 905.5,-36"/>
<text text-anchor="middle" x="832" y="-14.3" font-family="Times,serif" font-size="14.00" fill="#000000">https://ci.kaitai.io/</text>
</a>
</g>
</g>
<!-- git_ci_artifacts&#45;&gt;dashboard -->
<g id="edge17" class="edge">
<title>git_ci_artifacts&#45;&gt;dashboard</title>
<path fill="none" stroke="#000000" d="M832,-71.8201C832,-64.0975 832,-55.0282 832,-46.5585"/>
<polygon fill="#000000" stroke="#000000" points="835.5001,-46.2973 832,-36.2973 828.5001,-46.2974 835.5001,-46.2973"/>
</g>
<!-- git_runtime_ruby -->
<g id="node4" class="node">
<title>git_runtime_ruby</title>
<g id="a_node4"><a xlink:href="https://github.com/kaitai-io/kaitai_struct_ruby_runtime" xlink:title="git:\nruntime_ruby" target="_blank">
<polygon fill="#ffffba" stroke="transparent" points="932,-274 818,-274 818,-236 932,-236 932,-274"/>
<text text-anchor="middle" x="875" y="-258.8" font-family="Times,serif" font-size="14.00" fill="#000000">git:</text>
<text text-anchor="middle" x="875" y="-243.8" font-family="Times,serif" font-size="14.00" fill="#000000">runtime_ruby</text>
</a>
</g>
</g>
<!-- git_runtime_ruby&#45;&gt;build_ruby_1_9 -->
<g id="edge18" class="edge">
<title>git_runtime_ruby&#45;&gt;build_ruby_1_9</title>
<path fill="none" stroke="#000000" d="M842.4745,-235.7849C839.1458,-233.3277 835.9194,-230.716 833,-228 821.2169,-217.0379 810.2665,-202.8872 801.8091,-190.6804"/>
<polygon fill="#000000" stroke="#000000" points="804.5983,-188.5559 796.1151,-182.2088 798.7886,-192.4608 804.5983,-188.5559"/>
</g>
<!-- git_runtime_ruby&#45;&gt;build_ruby_2_3 -->
<g id="edge19" class="edge">
<title>git_runtime_ruby&#45;&gt;build_ruby_2_3</title>
<path fill="none" stroke="#000000" d="M876.0604,-235.7012C876.7548,-223.0625 877.6741,-206.3322 878.4499,-192.2115"/>
<polygon fill="#000000" stroke="#000000" points="881.9552,-192.21 879.0092,-182.033 874.9657,-191.8259 881.9552,-192.21"/>
</g>
<!-- artifact_deb -->
<g id="node5" class="node">
<title>artifact_deb</title>
<g id="a_node5"><a xlink:href="https://bintray.com/kaitai-io/debian_unstable/kaitai-struct-compiler" xlink:title="bintray:\ncompiler .deb" target="_blank">
<polygon fill="#baffc9" stroke="transparent" points="494.5,-348 379.5,-348 379.5,-310 494.5,-310 494.5,-348"/>
<text text-anchor="middle" x="437" y="-332.8" font-family="Times,serif" font-size="14.00" fill="#000000">bintray:</text>
<text text-anchor="middle" x="437" y="-317.8" font-family="Times,serif" font-size="14.00" fill="#000000">compiler .deb</text>
</a>
</g>
</g>
<!-- artifact_zip -->
<g id="node6" class="node">
<title>artifact_zip</title>
<g id="a_node6"><a xlink:href="https://bintray.com/kaitai-io/universal_unstable/kaitai-struct-compiler" xlink:title="bintray:\ncompiler .zip" target="_blank">
<polygon fill="#baffc9" stroke="transparent" points="242,-348 132,-348 132,-310 242,-310 242,-348"/>
<text text-anchor="middle" x="187" y="-332.8" font-family="Times,serif" font-size="14.00" fill="#000000">bintray:</text>
<text text-anchor="middle" x="187" y="-317.8" font-family="Times,serif" font-size="14.00" fill="#000000">compiler .zip</text>
</a>
</g>
</g>
<!-- artifact_js -->
<g id="node7" class="node">
<title>artifact_js</title>
<g id="a_node7"><a xlink:href="https://www.npmjs.com/package/kaitai-struct-compiler" xlink:title="npm:\ncompiler .js" target="_blank">
<polygon fill="#baffc9" stroke="transparent" points="361.5,-348 260.5,-348 260.5,-310 361.5,-310 361.5,-348"/>
<text text-anchor="middle" x="311" y="-332.8" font-family="Times,serif" font-size="14.00" fill="#000000">npm:</text>
<text text-anchor="middle" x="311" y="-317.8" font-family="Times,serif" font-size="14.00" fill="#000000">compiler .js</text>
</a>
</g>
</g>
<!-- abridged_1 -->
<g id="node13" class="node">
<title>abridged_1</title>
<text text-anchor="middle" x="311" y="-251.3" font-family="Times,serif" font-size="14.00" fill="#000000">...</text>
</g>
<!-- artifact_js&#45;&gt;abridged_1 -->
<g id="edge20" class="edge">
<title>artifact_js&#45;&gt;abridged_1</title>
<path fill="none" stroke="#000000" d="M311,-309.9432C311,-301.8174 311,-292.1682 311,-283.2408"/>
<polygon fill="#000000" stroke="#000000" points="314.5001,-283.2268 311,-273.2269 307.5001,-283.2269 314.5001,-283.2268"/>
</g>
<!-- artifact_msi -->
<g id="node8" class="node">
<title>artifact_msi</title>
<g id="a_node8"><a xlink:href="https://ci.appveyor.com/project/GreyCat/kaitai-struct/build/artifacts" xlink:title="appveyor:\ncompiler .msi" target="_blank">
<polygon fill="#baffc9" stroke="transparent" points="114,-348 0,-348 0,-310 114,-310 114,-348"/>
<text text-anchor="middle" x="57" y="-332.8" font-family="Times,serif" font-size="14.00" fill="#000000">appveyor:</text>
<text text-anchor="middle" x="57" y="-317.8" font-family="Times,serif" font-size="14.00" fill="#000000">compiler .msi</text>
</a>
</g>
</g>
<!-- artifact_ci_targets -->
<g id="node9" class="node">
<title>artifact_ci_targets</title>
<g id="a_node9"><a xlink:href="https://github.com/kaitai-io/ci_targets" xlink:title="git:\nci_targets" target="_blank">
<polygon fill="#eaffe9" stroke="transparent" points="761.5,-274 672.5,-274 672.5,-236 761.5,-236 761.5,-274"/>
<text text-anchor="middle" x="717" y="-258.8" font-family="Times,serif" font-size="14.00" fill="#000000">git:</text>
<text text-anchor="middle" x="717" y="-243.8" font-family="Times,serif" font-size="14.00" fill="#000000">ci_targets</text>
</a>
</g>
</g>
<!-- artifact_ci_targets&#45;&gt;build_ruby_1_9 -->
<g id="edge13" class="edge">
<title>artifact_ci_targets&#45;&gt;build_ruby_1_9</title>
<path fill="none" stroke="#000000" d="M731.4211,-235.7012C741.3283,-222.443 754.6002,-204.6821 765.4559,-190.1546"/>
<polygon fill="#000000" stroke="#000000" points="768.3425,-192.1387 771.5248,-182.033 762.7351,-187.9485 768.3425,-192.1387"/>
</g>
<!-- artifact_ci_targets&#45;&gt;build_ruby_2_3 -->
<g id="edge14" class="edge">
<title>artifact_ci_targets&#45;&gt;build_ruby_2_3</title>
<path fill="none" stroke="#000000" d="M761.5604,-246.1757C791.6048,-239.962 826.8507,-232.0555 833,-228 846.9319,-218.8118 858.1979,-204.0012 866.2036,-190.9406"/>
<polygon fill="#000000" stroke="#000000" points="869.2421,-192.6779 871.218,-182.2689 863.1822,-189.1738 869.2421,-192.6779"/>
</g>
<!-- build_compiler_appveyor&#45;&gt;artifact_msi -->
<g id="edge3" class="edge">
<title>build_compiler_appveyor&#45;&gt;artifact_msi</title>
<path fill="none" stroke="#000000" d="M196.5853,-383.9432C171.6832,-374.1412 141.1492,-362.1226 114.9957,-351.8281"/>
<polygon fill="#000000" stroke="#000000" points="116.1641,-348.5267 105.577,-348.1207 113.6002,-355.0402 116.1641,-348.5267"/>
</g>
<!-- web_ide_unstable -->
<g id="node12" class="node">
<title>web_ide_unstable</title>
<g id="a_node12"><a xlink:href="https://ide.kaitai.io/devel/" xlink:title="https://ide.kaitai.io/devel/" target="_blank">
<polygon fill="#ffb86c" stroke="transparent" points="410.5,-182 211.5,-182 211.5,-146 410.5,-146 410.5,-182"/>
<text text-anchor="middle" x="311" y="-160.3" font-family="Times,serif" font-size="14.00" fill="#000000">https://ide.kaitai.io/devel/</text>
</a>
</g>
</g>
<!-- abridged_1&#45;&gt;web_ide_unstable -->
<g id="edge21" class="edge">
<title>abridged_1&#45;&gt;web_ide_unstable</title>
<path fill="none" stroke="#000000" d="M311,-236.5848C311,-223.9209 311,-206.8558 311,-192.4541"/>
<polygon fill="#000000" stroke="#000000" points="314.5001,-192.0772 311,-182.0773 307.5001,-192.0773 314.5001,-192.0772"/>
</g>
<!-- build_compiler&#45;&gt;artifact_deb -->
<g id="edge9" class="edge">
<title>build_compiler&#45;&gt;artifact_deb</title>
<path fill="none" stroke="#000000" d="M540.486,-384.8976C522.7057,-375.2936 500.6266,-363.3676 481.4347,-353.0012"/>
<polygon fill="#000000" stroke="#000000" points="483.0241,-349.8818 472.5622,-348.2088 479.6973,-356.0408 483.0241,-349.8818"/>
</g>
<!-- build_compiler&#45;&gt;artifact_zip -->
<g id="edge10" class="edge">
<title>build_compiler&#45;&gt;artifact_zip</title>
<path fill="none" stroke="#000000" d="M512.242,-394.7326C449.0792,-385.7717 348.0169,-370.0381 251.9269,-348.0821"/>
<polygon fill="#000000" stroke="#000000" points="252.5775,-344.6403 242.0461,-345.798 251.0008,-351.4604 252.5775,-344.6403"/>
</g>
<!-- build_compiler&#45;&gt;artifact_js -->
<g id="edge11" class="edge">
<title>build_compiler&#45;&gt;artifact_js</title>
<path fill="none" stroke="#000000" d="M512.1858,-387.1628C473.9984,-377.1872 423.7852,-363.728 371.571,-348.412"/>
<polygon fill="#000000" stroke="#000000" points="372.3822,-345.0023 361.8006,-345.531 370.4024,-351.7165 372.3822,-345.0023"/>
</g>
<!-- test_compiler -->
<g id="node15" class="node">
<title>test_compiler</title>
<polygon fill="#d3d3d3" stroke="transparent" points="627.5,-347 512.5,-347 512.5,-311 627.5,-311 627.5,-347"/>
<text text-anchor="middle" x="570" y="-325.3" font-family="Times,serif" font-size="14.00" fill="#000000">test_compiler</text>
</g>
<!-- build_compiler&#45;&gt;test_compiler -->
<g id="edge4" class="edge">
<title>build_compiler&#45;&gt;test_compiler</title>
<path fill="none" stroke="#000000" d="M573.0112,-384.7079C572.5656,-376.4635 572.0291,-366.5376 571.5331,-357.3622"/>
<polygon fill="#000000" stroke="#000000" points="575.0121,-356.8782 570.9774,-347.0817 568.0223,-357.2561 575.0121,-356.8782"/>
</g>
<!-- build_compiler&#45;&gt;build_formats -->
<g id="edge5" class="edge">
<title>build_compiler&#45;&gt;build_formats</title>
<path fill="none" stroke="#000000" d="M605.8016,-384.8976C623.1138,-375.0429 644.7211,-362.7434 663.2562,-352.1926"/>
<polygon fill="#000000" stroke="#000000" points="665.117,-355.1608 672.0762,-347.172 661.6541,-349.0773 665.117,-355.1608"/>
</g>
<!-- build_formats&#45;&gt;artifact_ci_targets -->
<g id="edge12" class="edge">
<title>build_formats&#45;&gt;artifact_ci_targets</title>
<path fill="none" stroke="#000000" d="M707.2135,-310.7079C708.6186,-302.7096 710.3017,-293.1287 711.8728,-284.1859"/>
<polygon fill="#000000" stroke="#000000" points="715.359,-284.5688 713.6421,-274.114 708.4646,-283.3575 715.359,-284.5688"/>
</g>
<!-- build_ruby_1_9&#45;&gt;git_ci_artifacts -->
<g id="edge15" class="edge">
<title>build_ruby_1_9&#45;&gt;git_ci_artifacts</title>
<path fill="none" stroke="#000000" d="M796.618,-145.9551C801.9328,-137.7001 808.348,-127.7361 814.2482,-118.572"/>
<polygon fill="#000000" stroke="#000000" points="817.2239,-120.4156 819.6945,-110.1128 811.3382,-116.6262 817.2239,-120.4156"/>
</g>
<!-- build_ruby_2_3&#45;&gt;git_ci_artifacts -->
<g id="edge16" class="edge">
<title>build_ruby_2_3&#45;&gt;git_ci_artifacts</title>
<path fill="none" stroke="#000000" d="M868.1348,-145.9551C862.7069,-137.7001 856.1552,-127.7361 850.1295,-118.572"/>
<polygon fill="#000000" stroke="#000000" points="852.9859,-116.5455 844.5673,-110.1128 847.137,-120.3913 852.9859,-116.5455"/>
</g>
<!-- legend_artifact_int -->
<g id="node19" class="node">
<title>legend_artifact_int</title>
<polygon fill="#eaffe9" stroke="transparent" points="1147.5,-512 986.5,-512 986.5,-476 1147.5,-476 1147.5,-512"/>
<text text-anchor="middle" x="1067" y="-490.3" font-family="Times,serif" font-size="14.00" fill="#000000">Intemediate artifact</text>
</g>
<!-- legend_artifact_final -->
<g id="node20" class="node">
<title>legend_artifact_final</title>
<polygon fill="#baffc9" stroke="transparent" points="1122,-421 1012,-421 1012,-385 1122,-385 1122,-421"/>
<text text-anchor="middle" x="1067" y="-399.3" font-family="Times,serif" font-size="14.00" fill="#000000">Final artifact</text>
</g>
<!-- legend_artifact_int&#45;&gt;legend_artifact_final -->
<!-- legend_source -->
<g id="node21" class="node">
<title>legend_source</title>
<polygon fill="#ffffba" stroke="transparent" points="1119,-347 1015,-347 1015,-311 1119,-311 1119,-347"/>
<text text-anchor="middle" x="1067" y="-325.3" font-family="Times,serif" font-size="14.00" fill="#000000">Source repo</text>
</g>
<!-- legend_artifact_final&#45;&gt;legend_source -->
<!-- legend_build -->
<g id="node22" class="node">
<title>legend_build</title>
<polygon fill="#d0d0d0" stroke="transparent" points="1124,-273 1010,-273 1010,-237 1124,-237 1124,-273"/>
<text text-anchor="middle" x="1067" y="-251.3" font-family="Times,serif" font-size="14.00" fill="#000000">Build process</text>
</g>
<!-- legend_source&#45;&gt;legend_build -->
<!-- legend_website -->
<g id="node23" class="node">
<title>legend_website</title>
<polygon fill="#ffb86c" stroke="transparent" points="1104,-182 1030,-182 1030,-146 1104,-146 1104,-182"/>
<text text-anchor="middle" x="1067" y="-160.3" font-family="Times,serif" font-size="14.00" fill="#000000">Website</text>
</g>
<!-- legend_build&#45;&gt;legend_website -->
</g>
</svg>
