<?xml version="1.0" encoding="UTF-8" standalone="no"?>
<!DOCTYPE svg PUBLIC "-//W3C//DTD SVG 1.1//EN"
 "http://www.w3.org/Graphics/SVG/1.1/DTD/svg11.dtd">
<!-- Generated by graphviz version 2.38.0 (20140413.2041)
 -->
<!-- Title: %3 Pages: 1 -->
<svg width="1383pt" height="543pt"
 viewBox="0.00 0.00 1383.00 543.00" xmlns="http://www.w3.org/2000/svg" xmlns:xlink="http://www.w3.org/1999/xlink">
<g id="graph0" class="graph" transform="scale(1 1) rotate(0) translate(4 539)">
<title>%3</title>
<polygon fill="white" stroke="none" points="-4,4 -4,-539 1379,-539 1379,4 -4,4"/>
<g id="clust1" class="cluster"><title>cluster_build_compiler</title>
<polygon fill="none" stroke="black" stroke-dasharray="1,5" points="242.5,-104 242.5,-233 607.5,-233 607.5,-104 242.5,-104"/>
<text text-anchor="middle" x="425" y="-217.8" font-family="Times,serif" font-size="14.00">travis: compiler and targets</text>
</g>
<g id="clust5" class="cluster"><title>cluster_travis_ci_targets</title>
<polygon fill="none" stroke="black" stroke-dasharray="1,5" points="899,-8 899,-137 1038,-137 1038,-8 899,-8"/>
<text text-anchor="middle" x="968.5" y="-121.8" font-family="Times,serif" font-size="14.00">travis: ci_targets</text>
</g>
<g id="clust8" class="cluster"><title>cluster_legend</title>
<polygon fill="none" stroke="black" stroke-dasharray="1,5" points="8,-290 8,-527 185,-527 185,-290 8,-290"/>
<text text-anchor="middle" x="96.5" y="-511.8" font-family="Times,serif" font-size="14.00">Legend</text>
</g>
<!-- git_compiler -->
<g id="node1" class="node"><title>git_compiler</title>
<g id="a_node1"><a xlink:href="https://github.com/kaitai-io/kaitai_struct_compiler" xlink:title="git: compiler">
<polygon fill="#ffffba" stroke="none" points="150.5,-280 42.5,-280 42.5,-244 150.5,-244 150.5,-280"/>
<text text-anchor="middle" x="96.5" y="-258.3" font-family="Times,serif" font-size="14.00">git: compiler</text>
</a>
</g>
</g>
<!-- build_compiler_appveyor -->
<g id="node9" class="node"><title>build_compiler_appveyor</title>
<g id="a_node9"><a xlink:href="https://ci.appveyor.com/project/GreyCat/kaitai-struct" xlink:title="appveyor: build_compiler">
<polygon fill="#d0d0d0" stroke="none" points="411,-358 213,-358 213,-322 411,-322 411,-358"/>
<text text-anchor="middle" x="312" y="-336.3" font-family="Times,serif" font-size="14.00">appveyor: build_compiler</text>
</a>
</g>
</g>
<!-- git_compiler&#45;&gt;build_compiler_appveyor -->
<g id="edge2" class="edge"><title>git_compiler&#45;&gt;build_compiler_appveyor</title>
<path fill="none" stroke="black" d="M150.608,-275.311C162.043,-278.525 173.996,-282.153 185,-286 211.36,-295.215 240.026,-307.327 263.346,-317.744"/>
<polygon fill="black" stroke="black" points="262.106,-321.024 272.661,-321.941 264.982,-314.642 262.106,-321.024"/>
</g>
<!-- build_compiler -->
<g id="node12" class="node"><title>build_compiler</title>
<polygon fill="lightgrey" stroke="none" points="373.5,-202 250.5,-202 250.5,-166 373.5,-166 373.5,-202"/>
<text text-anchor="middle" x="312" y="-180.3" font-family="Times,serif" font-size="14.00">build_compiler</text>
</g>
<!-- git_compiler&#45;&gt;build_compiler -->
<g id="edge1" class="edge"><title>git_compiler&#45;&gt;build_compiler</title>
<path fill="none" stroke="black" d="M147.018,-243.909C178.298,-232.481 218.887,-217.652 251.857,-205.607"/>
<polygon fill="black" stroke="black" points="253.19,-208.847 261.381,-202.128 250.787,-202.272 253.19,-208.847"/>
</g>
<!-- git_tests -->
<g id="node2" class="node"><title>git_tests</title>
<g id="a_node2"><a xlink:href="https://github.com/kaitai-io/kaitai_struct_tests" xlink:title="git: tests">
<polygon fill="#ffffba" stroke="none" points="352,-96 272,-96 272,-60 352,-60 352,-96"/>
<text text-anchor="middle" x="312" y="-74.3" font-family="Times,serif" font-size="14.00">git: tests</text>
</a>
</g>
</g>
<!-- build_formats -->
<g id="node15" class="node"><title>build_formats</title>
<polygon fill="lightgrey" stroke="none" points="599.5,-148 483.5,-148 483.5,-112 599.5,-112 599.5,-148"/>
<text text-anchor="middle" x="541.5" y="-126.3" font-family="Times,serif" font-size="14.00">build_formats</text>
</g>
<!-- git_tests&#45;&gt;build_formats -->
<g id="edge6" class="edge"><title>git_tests&#45;&gt;build_formats</title>
<path fill="none" stroke="black" d="M352.118,-86.7175C370.066,-90.7336 391.619,-95.5798 411,-100 431.307,-104.631 453.391,-109.726 473.475,-114.381"/>
<polygon fill="black" stroke="black" points="472.933,-117.849 483.466,-116.699 474.515,-111.03 472.933,-117.849"/>
</g>
<!-- build_ruby_1_9 -->
<g id="node16" class="node"><title>build_ruby_1_9</title>
<polygon fill="lightgrey" stroke="none" points="1007,-52 930,-52 930,-16 1007,-16 1007,-52"/>
<text text-anchor="middle" x="968.5" y="-30.3" font-family="Times,serif" font-size="14.00">ruby/1.9</text>
</g>
<!-- git_tests&#45;&gt;build_ruby_1_9 -->
<g id="edge7" class="edge"><title>git_tests&#45;&gt;build_ruby_1_9</title>
<path fill="none" stroke="black" d="M352.23,-66.8813C443.316,-42.4675 676.223,11.8911 871,-11 887.136,-12.8964 904.484,-16.5184 919.959,-20.3367"/>
<polygon fill="black" stroke="black" points="919.271,-23.7733 929.827,-22.858 921.004,-16.9912 919.271,-23.7733"/>
</g>
<!-- build_ruby_2_3 -->
<g id="node17" class="node"><title>build_ruby_2_3</title>
<polygon fill="lightgrey" stroke="none" points="1007,-106 930,-106 930,-70 1007,-70 1007,-106"/>
<text text-anchor="middle" x="968.5" y="-84.3" font-family="Times,serif" font-size="14.00">ruby/2.3</text>
</g>
<!-- git_tests&#45;&gt;build_ruby_2_3 -->
<g id="edge8" class="edge"><title>git_tests&#45;&gt;build_ruby_2_3</title>
<path fill="none" stroke="black" d="M352.468,-78.603C466.332,-80.3427 795.181,-85.3672 919.304,-87.2636"/>
<polygon fill="black" stroke="black" points="919.572,-90.768 929.625,-87.4213 919.679,-83.7688 919.572,-90.768"/>
</g>
<!-- git_ci_artifacts -->
<g id="node3" class="node"><title>git_ci_artifacts</title>
<g id="a_node3"><a xlink:href="https://github.com/kaitai-io/ci_artifacts" xlink:title="git: ci_artifacts">
<polygon fill="#baffc9" stroke="none" points="1192,-79 1066,-79 1066,-43 1192,-43 1192,-79"/>
<text text-anchor="middle" x="1129" y="-57.3" font-family="Times,serif" font-size="14.00">git: ci_artifacts</text>
</a>
</g>
</g>
<!-- dashboard -->
<g id="node10" class="node"><title>dashboard</title>
<g id="a_node10"><a xlink:href="https://ci.kaitai.io/" xlink:title="https://ci.kaitai.io/">
<polygon fill="lightgrey" stroke="none" points="1375,-79 1228,-79 1228,-43 1375,-43 1375,-79"/>
<text text-anchor="middle" x="1301.5" y="-57.3" font-family="Times,serif" font-size="14.00">https://ci.kaitai.io/</text>
</a>
</g>
</g>
<!-- git_ci_artifacts&#45;&gt;dashboard -->
<g id="edge17" class="edge"><title>git_ci_artifacts&#45;&gt;dashboard</title>
<path fill="none" stroke="black" d="M1192.04,-61C1200.39,-61 1209.06,-61 1217.69,-61"/>
<polygon fill="black" stroke="black" points="1217.8,-64.5001 1227.8,-61 1217.8,-57.5001 1217.8,-64.5001"/>
</g>
<!-- artifact_deb -->
<g id="node4" class="node"><title>artifact_deb</title>
<g id="a_node4"><a xlink:href="https://bintray.com/kaitai-io/debian_unstable/kaitai-struct-compiler" xlink:title="bintray: compiler .deb">
<polygon fill="#baffc9" stroke="none" points="629.5,-385 453.5,-385 453.5,-349 629.5,-349 629.5,-385"/>
<text text-anchor="middle" x="541.5" y="-363.3" font-family="Times,serif" font-size="14.00">bintray: compiler .deb</text>
</a>
</g>
</g>
<!-- artifact_zip -->
<g id="node5" class="node"><title>artifact_zip</title>
<g id="a_node5"><a xlink:href="https://bintray.com/kaitai-io/universal_unstable/kaitai-struct-compiler" xlink:title="bintray: compiler .zip">
<polygon fill="#baffc9" stroke="none" points="626.5,-331 456.5,-331 456.5,-295 626.5,-295 626.5,-331"/>
<text text-anchor="middle" x="541.5" y="-309.3" font-family="Times,serif" font-size="14.00">bintray: compiler .zip</text>
</a>
</g>
</g>
<!-- artifact_js -->
<g id="node6" class="node"><title>artifact_js</title>
<g id="a_node6"><a xlink:href="https://www.npmjs.com/package/kaitai-struct-compiler" xlink:title="npm: compiler .js">
<polygon fill="#baffc9" stroke="none" points="612,-277 471,-277 471,-241 612,-241 612,-277"/>
<text text-anchor="middle" x="541.5" y="-255.3" font-family="Times,serif" font-size="14.00">npm: compiler .js</text>
</a>
</g>
</g>
<!-- web_ide_unstable -->
<g id="node11" class="node"><title>web_ide_unstable</title>
<g id="a_node11"><a xlink:href="https://ide.kaitai.io/devel/" xlink:title="https://ide.kaitai.io/devel/">
<polygon fill="lightgrey" stroke="none" points="871,-277 672,-277 672,-241 871,-241 871,-277"/>
<text text-anchor="middle" x="771.5" y="-255.3" font-family="Times,serif" font-size="14.00">https://ide.kaitai.io/devel/</text>
</a>
</g>
</g>
<!-- artifact_js&#45;&gt;web_ide_unstable -->
<g id="edge20" class="edge"><title>artifact_js&#45;&gt;web_ide_unstable</title>
<path fill="none" stroke="black" d="M612.146,-259C627.763,-259 644.696,-259 661.484,-259"/>
<polygon fill="black" stroke="black" points="661.905,-262.5 671.905,-259 661.905,-255.5 661.905,-262.5"/>
</g>
<!-- artifact_msi -->
<g id="node7" class="node"><title>artifact_msi</title>
<g id="a_node7"><a xlink:href="https://ci.appveyor.com/project/GreyCat/kaitai-struct/build/artifacts" xlink:title="appveyor: compiler .msi">
<polygon fill="#baffc9" stroke="none" points="636,-439 447,-439 447,-403 636,-403 636,-439"/>
<text text-anchor="middle" x="541.5" y="-417.3" font-family="Times,serif" font-size="14.00">appveyor: compiler .msi</text>
</a>
</g>
</g>
<!-- artifact_ci_targets -->
<g id="node8" class="node"><title>artifact_ci_targets</title>
<g id="a_node8"><a xlink:href="https://github.com/kaitai-io/ci_targets" xlink:title="git: ci_targets">
<polygon fill="#eaffe9" stroke="none" points="830,-148 713,-148 713,-112 830,-112 830,-148"/>
<text text-anchor="middle" x="771.5" y="-126.3" font-family="Times,serif" font-size="14.00">git: ci_targets</text>
</a>
</g>
</g>
<!-- artifact_ci_targets&#45;&gt;build_ruby_1_9 -->
<g id="edge13" class="edge"><title>artifact_ci_targets&#45;&gt;build_ruby_1_9</title>
<path fill="none" stroke="black" d="M803.139,-111.894C828.422,-97.2944 865.461,-76.6831 899,-61 905.767,-57.8358 913.014,-54.7093 920.169,-51.7681"/>
<polygon fill="black" stroke="black" points="921.845,-54.8665 929.815,-47.8862 919.231,-48.3725 921.845,-54.8665"/>
</g>
<!-- artifact_ci_targets&#45;&gt;build_ruby_2_3 -->
<g id="edge14" class="edge"><title>artifact_ci_targets&#45;&gt;build_ruby_2_3</title>
<path fill="none" stroke="black" d="M830.215,-117.569C858.796,-111.413 892.881,-104.072 919.939,-98.2439"/>
<polygon fill="black" stroke="black" points="920.9,-101.617 929.939,-96.0902 919.426,-94.7743 920.9,-101.617"/>
</g>
<!-- build_compiler_appveyor&#45;&gt;artifact_msi -->
<g id="edge3" class="edge"><title>build_compiler_appveyor&#45;&gt;artifact_msi</title>
<path fill="none" stroke="black" d="M354.533,-358.012C380.79,-369.08 415.582,-383.165 447,-394 452.87,-396.024 458.981,-398.024 465.144,-399.964"/>
<polygon fill="black" stroke="black" points="464.256,-403.353 474.843,-402.959 466.321,-396.664 464.256,-403.353"/>
</g>
<!-- build_compiler&#45;&gt;artifact_deb -->
<g id="edge9" class="edge"><title>build_compiler&#45;&gt;artifact_deb</title>
<path fill="none" stroke="black" d="M323.59,-202.191C343.517,-234.801 389.78,-303.233 447,-340 449.465,-341.584 452.026,-343.077 454.657,-344.485"/>
<polygon fill="black" stroke="black" points="453.318,-347.726 463.842,-348.948 456.377,-341.43 453.318,-347.726"/>
</g>
<!-- build_compiler&#45;&gt;artifact_zip -->
<g id="edge10" class="edge"><title>build_compiler&#45;&gt;artifact_zip</title>
<path fill="none" stroke="black" d="M331.873,-202.048C356.502,-224.686 401.811,-263.279 447,-286 450.736,-287.878 454.624,-289.646 458.599,-291.307"/>
<polygon fill="black" stroke="black" points="457.414,-294.602 468.002,-294.989 459.967,-288.084 457.414,-294.602"/>
</g>
<!-- build_compiler&#45;&gt;artifact_js -->
<g id="edge11" class="edge"><title>build_compiler&#45;&gt;artifact_js</title>
<path fill="none" stroke="black" d="M354.088,-202.053C380.323,-213.128 415.251,-227.044 447,-237 451.535,-238.422 456.219,-239.8 460.963,-241.126"/>
<polygon fill="black" stroke="black" points="460.188,-244.543 470.755,-243.774 462.015,-237.785 460.188,-244.543"/>
</g>
<!-- test_compiler -->
<g id="node14" class="node"><title>test_compiler</title>
<polygon fill="lightgrey" stroke="none" points="599,-202 484,-202 484,-166 599,-166 599,-202"/>
<text text-anchor="middle" x="541.5" y="-180.3" font-family="Times,serif" font-size="14.00">test_compiler</text>
</g>
<!-- build_compiler&#45;&gt;test_compiler -->
<g id="edge4" class="edge"><title>build_compiler&#45;&gt;test_compiler</title>
<path fill="none" stroke="black" d="M373.667,-184C404.548,-184 442.158,-184 473.846,-184"/>
<polygon fill="black" stroke="black" points="473.91,-187.5 483.91,-184 473.91,-180.5 473.91,-187.5"/>
</g>
<!-- build_compiler&#45;&gt;build_formats -->
<g id="edge5" class="edge"><title>build_compiler&#45;&gt;build_formats</title>
<path fill="none" stroke="black" d="M373.667,-169.6C404.311,-162.326 441.58,-153.48 473.114,-145.995"/>
<polygon fill="black" stroke="black" points="474.213,-149.331 483.135,-143.616 472.597,-142.521 474.213,-149.331"/>
</g>
<!-- git_runtime_ruby -->
<g id="node13" class="node"><title>git_runtime_ruby</title>
<g id="a_node13"><a xlink:href="https://github.com/kaitai-io/kaitai_struct_ruby_runtime" xlink:title="git: runtime_ruby">
<polygon fill="#ffffba" stroke="none" points="843,-56 700,-56 700,-20 843,-20 843,-56"/>
<text text-anchor="middle" x="771.5" y="-34.3" font-family="Times,serif" font-size="14.00">git: runtime_ruby</text>
</a>
</g>
</g>
<!-- git_runtime_ruby&#45;&gt;build_ruby_1_9 -->
<g id="edge18" class="edge"><title>git_runtime_ruby&#45;&gt;build_ruby_1_9</title>
<path fill="none" stroke="black" d="M843.175,-36.5503C868.601,-36.0287 896.666,-35.453 919.687,-34.9808"/>
<polygon fill="black" stroke="black" points="919.956,-38.4761 929.882,-34.7717 919.812,-31.4776 919.956,-38.4761"/>
</g>
<!-- git_runtime_ruby&#45;&gt;build_ruby_2_3 -->
<g id="edge19" class="edge"><title>git_runtime_ruby&#45;&gt;build_ruby_2_3</title>
<path fill="none" stroke="black" d="M842.899,-56.0511C868.463,-62.6058 896.725,-69.8527 919.863,-75.7853"/>
<polygon fill="black" stroke="black" points="919.216,-79.2327 929.772,-78.3262 920.955,-72.452 919.216,-79.2327"/>
</g>
<!-- build_formats&#45;&gt;artifact_ci_targets -->
<g id="edge12" class="edge"><title>build_formats&#45;&gt;artifact_ci_targets</title>
<path fill="none" stroke="black" d="M599.74,-130C630.925,-130 669.719,-130 702.445,-130"/>
<polygon fill="black" stroke="black" points="702.841,-133.5 712.841,-130 702.84,-126.5 702.841,-133.5"/>
</g>
<!-- build_ruby_1_9&#45;&gt;git_ci_artifacts -->
<g id="edge15" class="edge"><title>build_ruby_1_9&#45;&gt;git_ci_artifacts</title>
<path fill="none" stroke="black" d="M1007.06,-40.3986C1021.76,-42.9015 1039.12,-45.8596 1056.04,-48.7417"/>
<polygon fill="black" stroke="black" points="1055.48,-52.1967 1065.93,-50.4257 1056.65,-45.2961 1055.48,-52.1967"/>
</g>
<!-- build_ruby_2_3&#45;&gt;git_ci_artifacts -->
<g id="edge16" class="edge"><title>build_ruby_2_3&#45;&gt;git_ci_artifacts</title>
<path fill="none" stroke="black" d="M1007.06,-81.6014C1021.76,-79.0985 1039.12,-76.1404 1056.04,-73.2583"/>
<polygon fill="black" stroke="black" points="1056.65,-76.7039 1065.93,-71.5743 1055.48,-69.8033 1056.65,-76.7039"/>
</g>
<!-- legend_artifact_int -->
<g id="node18" class="node"><title>legend_artifact_int</title>
<polygon fill="#eaffe9" stroke="none" points="177,-496 16,-496 16,-460 177,-460 177,-496"/>
<text text-anchor="middle" x="96.5" y="-474.3" font-family="Times,serif" font-size="14.00">Intemediate artifact</text>
</g>
<!-- legend_artifact_final -->
<g id="node19" class="node"><title>legend_artifact_final</title>
<polygon fill="#baffc9" stroke="none" points="151.5,-442 41.5,-442 41.5,-406 151.5,-406 151.5,-442"/>
<text text-anchor="middle" x="96.5" y="-420.3" font-family="Times,serif" font-size="14.00">Final artifact</text>
</g>
<!-- legend_source -->
<g id="node20" class="node"><title>legend_source</title>
<polygon fill="#ffffba" stroke="none" points="148,-388 45,-388 45,-352 148,-352 148,-388"/>
<text text-anchor="middle" x="96.5" y="-366.3" font-family="Times,serif" font-size="14.00">Source repo</text>
</g>
<!-- legend_build -->
<g id="node21" class="node"><title>legend_build</title>
<polygon fill="#d0d0d0" stroke="none" points="153.5,-334 39.5,-334 39.5,-298 153.5,-298 153.5,-334"/>
<text text-anchor="middle" x="96.5" y="-312.3" font-family="Times,serif" font-size="14.00">Build process</text>
</g>
</g>
</svg>
