<?xml version="1.0" encoding="UTF-8" standalone="no"?>
<!DOCTYPE svg PUBLIC "-//W3C//DTD SVG 1.1//EN"
 "http://www.w3.org/Graphics/SVG/1.1/DTD/svg11.dtd">
<!-- Generated by graphviz version 2.38.0 (20140413.2041)
 -->
<!-- Title: %3 Pages: 1 -->
<svg width="1172pt" height="559pt"
 viewBox="0.00 0.00 1172.00 559.00" xmlns="http://www.w3.org/2000/svg" xmlns:xlink="http://www.w3.org/1999/xlink">
<g id="graph0" class="graph" transform="scale(1 1) rotate(0) translate(4 555)">
<title>%3</title>
<polygon fill="white" stroke="none" points="-4,4 -4,-555 1168,-555 1168,4 -4,4"/>
<g id="clust1" class="cluster"><title>cluster_build_compiler</title>
<polygon fill="none" stroke="black" stroke-dasharray="1,5" points="504,-303 504,-467 770,-467 770,-303 504,-303"/>
<text text-anchor="middle" x="637" y="-451.8" font-family="Times,serif" font-size="14.00">travis:</text>
<text text-anchor="middle" x="637" y="-436.8" font-family="Times,serif" font-size="14.00">compiler and targets</text>
</g>
<g id="clust5" class="cluster"><title>cluster_travis_ci_targets</title>
<polygon fill="none" stroke="black" stroke-dasharray="1,5" points="738,-138 738,-228 927,-228 927,-138 738,-138"/>
<text text-anchor="middle" x="832.5" y="-212.8" font-family="Times,serif" font-size="14.00">travis:</text>
<text text-anchor="middle" x="832.5" y="-197.8" font-family="Times,serif" font-size="14.00">ci_targets</text>
</g>
<g id="clust8" class="cluster"><title>cluster_legend</title>
<polygon fill="none" stroke="black" stroke-dasharray="1,5" points="978,-138 978,-543 1156,-543 1156,-138 978,-138"/>
<text text-anchor="middle" x="1067" y="-527.8" font-family="Times,serif" font-size="14.00">Legend</text>
</g>
<!-- git_compiler -->
<g id="node1" class="node"><title>git_compiler</title>
<g id="a_node1"><a xlink:href="https://github.com/kaitai-io/kaitai_struct_compiler" xlink:title="git:\ncompiler" target="_blank">
<polygon fill="#ffffba" stroke="none" points="449,-513 369,-513 369,-475 449,-475 449,-513"/>
<text text-anchor="middle" x="409" y="-497.8" font-family="Times,serif" font-size="14.00">git:</text>
<text text-anchor="middle" x="409" y="-482.8" font-family="Times,serif" font-size="14.00">compiler</text>
</a>
</g>
</g>
<!-- build_compiler_appveyor -->
<g id="node10" class="node"><title>build_compiler_appveyor</title>
<g id="a_node10"><a xlink:href="https://ci.appveyor.com/project/GreyCat/kaitai-struct" xlink:title="appveyor:\nbuild_compiler" target="_blank">
<polygon fill="#d0d0d0" stroke="none" points="306.5,-422 183.5,-422 183.5,-384 306.5,-384 306.5,-422"/>
<text text-anchor="middle" x="245" y="-406.8" font-family="Times,serif" font-size="14.00">appveyor:</text>
<text text-anchor="middle" x="245" y="-391.8" font-family="Times,serif" font-size="14.00">build_compiler</text>
</a>
</g>
</g>
<!-- git_compiler&#45;&gt;build_compiler_appveyor -->
<g id="edge2" class="edge"><title>git_compiler&#45;&gt;build_compiler_appveyor</title>
<path fill="none" stroke="black" d="M375.812,-474.99C350.333,-461.162 314.968,-441.97 287.432,-427.027"/>
<polygon fill="black" stroke="black" points="288.878,-423.83 278.42,-422.136 285.539,-429.982 288.878,-423.83"/>
</g>
<!-- build_compiler -->
<g id="node14" class="node"><title>build_compiler</title>
<polygon fill="lightgrey" stroke="none" points="635.5,-421 512.5,-421 512.5,-385 635.5,-385 635.5,-421"/>
<text text-anchor="middle" x="574" y="-399.3" font-family="Times,serif" font-size="14.00">build_compiler</text>
</g>
<!-- git_compiler&#45;&gt;build_compiler -->
<g id="edge1" class="edge"><title>git_compiler&#45;&gt;build_compiler</title>
<path fill="none" stroke="black" d="M442.39,-474.99C468.617,-460.843 505.255,-441.081 533.217,-425.998"/>
<polygon fill="black" stroke="black" points="535.199,-428.906 542.339,-421.078 531.876,-422.745 535.199,-428.906"/>
</g>
<!-- git_tests -->
<g id="node2" class="node"><title>git_tests</title>
<g id="a_node2"><a xlink:href="https://github.com/kaitai-io/kaitai_struct_tests" xlink:title="git:\ntests" target="_blank">
<polygon fill="#ffffba" stroke="none" points="832,-422 778,-422 778,-384 832,-384 832,-422"/>
<text text-anchor="middle" x="805" y="-406.8" font-family="Times,serif" font-size="14.00">git:</text>
<text text-anchor="middle" x="805" y="-391.8" font-family="Times,serif" font-size="14.00">tests</text>
</a>
</g>
</g>
<!-- build_formats -->
<g id="node16" class="node"><title>build_formats</title>
<polygon fill="lightgrey" stroke="none" points="762,-347 646,-347 646,-311 762,-311 762,-347"/>
<text text-anchor="middle" x="704" y="-325.3" font-family="Times,serif" font-size="14.00">build_formats</text>
</g>
<!-- git_tests&#45;&gt;build_formats -->
<g id="edge6" class="edge"><title>git_tests&#45;&gt;build_formats</title>
<path fill="none" stroke="black" d="M779.513,-383.831C766.447,-374.517 750.392,-363.071 736.45,-353.132"/>
<polygon fill="black" stroke="black" points="738.262,-350.126 728.088,-347.171 734.199,-355.826 738.262,-350.126"/>
</g>
<!-- build_ruby_1_9 -->
<g id="node17" class="node"><title>build_ruby_1_9</title>
<polygon fill="lightgrey" stroke="none" points="823.5,-182 746.5,-182 746.5,-146 823.5,-146 823.5,-182"/>
<text text-anchor="middle" x="785" y="-160.3" font-family="Times,serif" font-size="14.00">ruby/1.9</text>
</g>
<!-- git_tests&#45;&gt;build_ruby_1_9 -->
<g id="edge7" class="edge"><title>git_tests&#45;&gt;build_ruby_1_9</title>
<path fill="none" stroke="black" d="M803.464,-383.797C799.977,-342.481 791.449,-241.415 787.318,-192.464"/>
<polygon fill="black" stroke="black" points="790.788,-191.97 786.46,-182.3 783.813,-192.559 790.788,-191.97"/>
</g>
<!-- build_ruby_2_3 -->
<g id="node18" class="node"><title>build_ruby_2_3</title>
<polygon fill="lightgrey" stroke="none" points="918.5,-182 841.5,-182 841.5,-146 918.5,-146 918.5,-182"/>
<text text-anchor="middle" x="880" y="-160.3" font-family="Times,serif" font-size="14.00">ruby/2.3</text>
</g>
<!-- git_tests&#45;&gt;build_ruby_2_3 -->
<g id="edge8" class="edge"><title>git_tests&#45;&gt;build_ruby_2_3</title>
<path fill="none" stroke="black" d="M832.174,-386.236C865.091,-365.378 918.88,-325.195 941,-274 947.699,-258.496 946.869,-251.836 941,-236 934.344,-218.039 920.886,-201.566 908.3,-189.019"/>
<polygon fill="black" stroke="black" points="910.701,-186.472 901.049,-182.103 905.87,-191.537 910.701,-186.472"/>
</g>
<!-- git_ci_artifacts -->
<g id="node3" class="node"><title>git_ci_artifacts</title>
<g id="a_node3"><a xlink:href="https://github.com/kaitai-io/ci_artifacts" xlink:title="git:\nci_artifacts" target="_blank">
<polygon fill="#baffc9" stroke="none" points="881,-110 783,-110 783,-72 881,-72 881,-110"/>
<text text-anchor="middle" x="832" y="-94.8" font-family="Times,serif" font-size="14.00">git:</text>
<text text-anchor="middle" x="832" y="-79.8" font-family="Times,serif" font-size="14.00">ci_artifacts</text>
</a>
</g>
</g>
<!-- dashboard -->
<g id="node11" class="node"><title>dashboard</title>
<g id="a_node11"><a xlink:href="https://ci.kaitai.io/" xlink:title="https://ci.kaitai.io/" target="_blank">
<polygon fill="#ffb86c" stroke="none" points="905.5,-36 758.5,-36 758.5,-0 905.5,-0 905.5,-36"/>
<text text-anchor="middle" x="832" y="-14.3" font-family="Times,serif" font-size="14.00">https://ci.kaitai.io/</text>
</a>
</g>
</g>
<!-- git_ci_artifacts&#45;&gt;dashboard -->
<g id="edge17" class="edge"><title>git_ci_artifacts&#45;&gt;dashboard</title>
<path fill="none" stroke="black" d="M832,-71.7157C832,-63.9733 832,-54.7894 832,-46.2737"/>
<polygon fill="black" stroke="black" points="835.5,-46.0034 832,-36.0034 828.5,-46.0035 835.5,-46.0034"/>
</g>
<!-- git_runtime_ruby -->
<g id="node4" class="node"><title>git_runtime_ruby</title>
<g id="a_node4"><a xlink:href="https://github.com/kaitai-io/kaitai_struct_ruby_runtime" xlink:title="git:\nruntime_ruby" target="_blank">
<polygon fill="#ffffba" stroke="none" points="932,-274 818,-274 818,-236 932,-236 932,-274"/>
<text text-anchor="middle" x="875" y="-258.8" font-family="Times,serif" font-size="14.00">git:</text>
<text text-anchor="middle" x="875" y="-243.8" font-family="Times,serif" font-size="14.00">runtime_ruby</text>
</a>
</g>
</g>
<!-- git_runtime_ruby&#45;&gt;build_ruby_1_9 -->
<g id="edge18" class="edge"><title>git_runtime_ruby&#45;&gt;build_ruby_1_9</title>
<path fill="none" stroke="black" d="M842.11,-235.972C838.551,-233.486 835.101,-230.814 832,-228 820.046,-217.154 809.104,-202.88 800.791,-190.662"/>
<polygon fill="black" stroke="black" points="803.648,-188.636 795.226,-182.207 797.801,-192.484 803.648,-188.636"/>
</g>
<!-- git_runtime_ruby&#45;&gt;build_ruby_2_3 -->
<g id="edge19" class="edge"><title>git_runtime_ruby&#45;&gt;build_ruby_2_3</title>
<path fill="none" stroke="black" d="M876.012,-235.99C876.717,-223.442 877.67,-206.477 878.468,-192.278"/>
<polygon fill="black" stroke="black" points="881.974,-192.258 879.041,-182.078 874.985,-191.866 881.974,-192.258"/>
</g>
<!-- artifact_deb -->
<g id="node5" class="node"><title>artifact_deb</title>
<g id="a_node5"><a xlink:href="https://bintray.com/kaitai-io/debian_unstable/kaitai-struct-compiler" xlink:title="bintray:\ncompiler .deb" target="_blank">
<polygon fill="#baffc9" stroke="none" points="494.5,-348 379.5,-348 379.5,-310 494.5,-310 494.5,-348"/>
<text text-anchor="middle" x="437" y="-332.8" font-family="Times,serif" font-size="14.00">bintray:</text>
<text text-anchor="middle" x="437" y="-317.8" font-family="Times,serif" font-size="14.00">compiler .deb</text>
</a>
</g>
</g>
<!-- artifact_zip -->
<g id="node6" class="node"><title>artifact_zip</title>
<g id="a_node6"><a xlink:href="https://bintray.com/kaitai-io/universal_unstable/kaitai-struct-compiler" xlink:title="bintray:\ncompiler .zip" target="_blank">
<polygon fill="#baffc9" stroke="none" points="242,-348 132,-348 132,-310 242,-310 242,-348"/>
<text text-anchor="middle" x="187" y="-332.8" font-family="Times,serif" font-size="14.00">bintray:</text>
<text text-anchor="middle" x="187" y="-317.8" font-family="Times,serif" font-size="14.00">compiler .zip</text>
</a>
</g>
</g>
<!-- artifact_js -->
<g id="node7" class="node"><title>artifact_js</title>
<g id="a_node7"><a xlink:href="https://www.npmjs.com/package/kaitai-struct-compiler" xlink:title="npm:\ncompiler .js" target="_blank">
<polygon fill="#baffc9" stroke="none" points="361.5,-348 260.5,-348 260.5,-310 361.5,-310 361.5,-348"/>
<text text-anchor="middle" x="311" y="-332.8" font-family="Times,serif" font-size="14.00">npm:</text>
<text text-anchor="middle" x="311" y="-317.8" font-family="Times,serif" font-size="14.00">compiler .js</text>
</a>
</g>
</g>
<!-- abridged_1 -->
<g id="node13" class="node"><title>abridged_1</title>
<text text-anchor="middle" x="311" y="-251.3" font-family="Times,serif" font-size="14.00">...</text>
</g>
<!-- artifact_js&#45;&gt;abridged_1 -->
<g id="edge20" class="edge"><title>artifact_js&#45;&gt;abridged_1</title>
<path fill="none" stroke="black" d="M311,-309.831C311,-301.894 311,-292.409 311,-283.628"/>
<polygon fill="black" stroke="black" points="314.5,-283.418 311,-273.418 307.5,-283.418 314.5,-283.418"/>
</g>
<!-- artifact_msi -->
<g id="node8" class="node"><title>artifact_msi</title>
<g id="a_node8"><a xlink:href="https://ci.appveyor.com/project/GreyCat/kaitai-struct/build/artifacts" xlink:title="appveyor:\ncompiler .msi" target="_blank">
<polygon fill="#baffc9" stroke="none" points="114,-348 0,-348 0,-310 114,-310 114,-348"/>
<text text-anchor="middle" x="57" y="-332.8" font-family="Times,serif" font-size="14.00">appveyor:</text>
<text text-anchor="middle" x="57" y="-317.8" font-family="Times,serif" font-size="14.00">compiler .msi</text>
</a>
</g>
</g>
<!-- artifact_ci_targets -->
<g id="node9" class="node"><title>artifact_ci_targets</title>
<g id="a_node9"><a xlink:href="https://github.com/kaitai-io/ci_targets" xlink:title="git:\nci_targets" target="_blank">
<polygon fill="#eaffe9" stroke="none" points="761.5,-274 672.5,-274 672.5,-236 761.5,-236 761.5,-274"/>
<text text-anchor="middle" x="717" y="-258.8" font-family="Times,serif" font-size="14.00">git:</text>
<text text-anchor="middle" x="717" y="-243.8" font-family="Times,serif" font-size="14.00">ci_targets</text>
</a>
</g>
</g>
<!-- artifact_ci_targets&#45;&gt;build_ruby_1_9 -->
<g id="edge13" class="edge"><title>artifact_ci_targets&#45;&gt;build_ruby_1_9</title>
<path fill="none" stroke="black" d="M730.761,-235.99C740.818,-222.827 754.589,-204.803 765.738,-190.21"/>
<polygon fill="black" stroke="black" points="768.662,-192.149 771.952,-182.078 763.099,-187.899 768.662,-192.149"/>
</g>
<!-- artifact_ci_targets&#45;&gt;build_ruby_2_3 -->
<g id="edge14" class="edge"><title>artifact_ci_targets&#45;&gt;build_ruby_2_3</title>
<path fill="none" stroke="black" d="M761.781,-245.398C791.416,-239.444 825.908,-231.914 832,-228 846.287,-218.821 857.961,-203.837 866.217,-190.784"/>
<polygon fill="black" stroke="black" points="869.251,-192.53 871.377,-182.151 863.242,-188.939 869.251,-192.53"/>
</g>
<!-- build_compiler_appveyor&#45;&gt;artifact_msi -->
<g id="edge3" class="edge"><title>build_compiler_appveyor&#45;&gt;artifact_msi</title>
<path fill="none" stroke="black" d="M197.56,-383.831C172.081,-374.073 140.496,-361.977 113.724,-351.724"/>
<polygon fill="black" stroke="black" points="114.69,-348.346 104.099,-348.038 112.186,-354.883 114.69,-348.346"/>
</g>
<!-- web_ide_unstable -->
<g id="node12" class="node"><title>web_ide_unstable</title>
<g id="a_node12"><a xlink:href="https://ide.kaitai.io/devel/" xlink:title="https://ide.kaitai.io/devel/" target="_blank">
<polygon fill="#ffb86c" stroke="none" points="410.5,-182 211.5,-182 211.5,-146 410.5,-146 410.5,-182"/>
<text text-anchor="middle" x="311" y="-160.3" font-family="Times,serif" font-size="14.00">https://ide.kaitai.io/devel/</text>
</a>
</g>
</g>
<!-- abridged_1&#45;&gt;web_ide_unstable -->
<g id="edge21" class="edge"><title>abridged_1&#45;&gt;web_ide_unstable</title>
<path fill="none" stroke="black" d="M311,-236.84C311,-224.281 311,-206.979 311,-192.502"/>
<polygon fill="black" stroke="black" points="314.5,-192.107 311,-182.107 307.5,-192.107 314.5,-192.107"/>
</g>
<!-- build_compiler&#45;&gt;artifact_deb -->
<g id="edge9" class="edge"><title>build_compiler&#45;&gt;artifact_deb</title>
<path fill="none" stroke="black" d="M541.533,-384.937C523.363,-375.388 500.464,-363.353 480.734,-352.984"/>
<polygon fill="black" stroke="black" points="482.109,-349.753 471.629,-348.199 478.853,-355.95 482.109,-349.753"/>
</g>
<!-- build_compiler&#45;&gt;artifact_zip -->
<g id="edge10" class="edge"><title>build_compiler&#45;&gt;artifact_zip</title>
<path fill="none" stroke="black" d="M512.295,-393.717C449.175,-384.786 348.148,-369.23 251.954,-348.093"/>
<polygon fill="black" stroke="black" points="252.583,-344.647 242.062,-345.895 251.065,-351.481 252.583,-344.647"/>
</g>
<!-- build_compiler&#45;&gt;artifact_js -->
<g id="edge11" class="edge"><title>build_compiler&#45;&gt;artifact_js</title>
<path fill="none" stroke="black" d="M512.239,-386.292C474.073,-376.436 423.864,-363.207 371.595,-348.414"/>
<polygon fill="black" stroke="black" points="372.389,-345.001 361.813,-345.634 370.475,-351.734 372.389,-345.001"/>
</g>
<!-- test_compiler -->
<g id="node15" class="node"><title>test_compiler</title>
<polygon fill="lightgrey" stroke="none" points="627.5,-347 512.5,-347 512.5,-311 627.5,-311 627.5,-347"/>
<text text-anchor="middle" x="570" y="-325.3" font-family="Times,serif" font-size="14.00">test_compiler</text>
</g>
<!-- build_compiler&#45;&gt;test_compiler -->
<g id="edge4" class="edge"><title>build_compiler&#45;&gt;test_compiler</title>
<path fill="none" stroke="black" d="M573.052,-384.937C572.6,-376.807 572.049,-366.876 571.539,-357.705"/>
<polygon fill="black" stroke="black" points="575.018,-357.231 570.969,-347.441 568.029,-357.619 575.018,-357.231"/>
</g>
<!-- build_compiler&#45;&gt;build_formats -->
<g id="edge5" class="edge"><title>build_compiler&#45;&gt;build_formats</title>
<path fill="none" stroke="black" d="M604.808,-384.937C622.568,-375.101 645.09,-362.627 664.182,-352.053"/>
<polygon fill="black" stroke="black" points="665.91,-355.097 672.962,-347.19 662.519,-348.973 665.91,-355.097"/>
</g>
<!-- build_formats&#45;&gt;artifact_ci_targets -->
<g id="edge12" class="edge"><title>build_formats&#45;&gt;artifact_ci_targets</title>
<path fill="none" stroke="black" d="M707.081,-310.937C708.516,-302.987 710.263,-293.313 711.888,-284.313"/>
<polygon fill="black" stroke="black" points="715.381,-284.662 713.714,-274.199 708.493,-283.418 715.381,-284.662"/>
</g>
<!-- build_ruby_1_9&#45;&gt;git_ci_artifacts -->
<g id="edge15" class="edge"><title>build_ruby_1_9&#45;&gt;git_ci_artifacts</title>
<path fill="none" stroke="black" d="M796.377,-145.813C801.813,-137.602 808.439,-127.592 814.496,-118.442"/>
<polygon fill="black" stroke="black" points="817.47,-120.29 820.072,-110.02 811.633,-116.426 817.47,-120.29"/>
</g>
<!-- build_ruby_2_3&#45;&gt;git_ci_artifacts -->
<g id="edge16" class="edge"><title>build_ruby_2_3&#45;&gt;git_ci_artifacts</title>
<path fill="none" stroke="black" d="M868.381,-145.813C862.83,-137.602 856.062,-127.592 849.876,-118.442"/>
<polygon fill="black" stroke="black" points="852.683,-116.344 844.182,-110.02 846.883,-120.264 852.683,-116.344"/>
</g>
<!-- legend_artifact_int -->
<g id="node19" class="node"><title>legend_artifact_int</title>
<polygon fill="#eaffe9" stroke="none" points="1147.5,-512 986.5,-512 986.5,-476 1147.5,-476 1147.5,-512"/>
<text text-anchor="middle" x="1067" y="-490.3" font-family="Times,serif" font-size="14.00">Intemediate artifact</text>
</g>
<!-- legend_artifact_final -->
<g id="node20" class="node"><title>legend_artifact_final</title>
<polygon fill="#baffc9" stroke="none" points="1122,-421 1012,-421 1012,-385 1122,-385 1122,-421"/>
<text text-anchor="middle" x="1067" y="-399.3" font-family="Times,serif" font-size="14.00">Final artifact</text>
</g>
<!-- legend_artifact_int&#45;&gt;legend_artifact_final -->
<!-- legend_source -->
<g id="node21" class="node"><title>legend_source</title>
<polygon fill="#ffffba" stroke="none" points="1118.5,-347 1015.5,-347 1015.5,-311 1118.5,-311 1118.5,-347"/>
<text text-anchor="middle" x="1067" y="-325.3" font-family="Times,serif" font-size="14.00">Source repo</text>
</g>
<!-- legend_artifact_final&#45;&gt;legend_source -->
<!-- legend_build -->
<g id="node22" class="node"><title>legend_build</title>
<polygon fill="#d0d0d0" stroke="none" points="1124,-273 1010,-273 1010,-237 1124,-237 1124,-273"/>
<text text-anchor="middle" x="1067" y="-251.3" font-family="Times,serif" font-size="14.00">Build process</text>
</g>
<!-- legend_source&#45;&gt;legend_build -->
<!-- legend_website -->
<g id="node23" class="node"><title>legend_website</title>
<polygon fill="#ffb86c" stroke="none" points="1104,-182 1030,-182 1030,-146 1104,-146 1104,-182"/>
<text text-anchor="middle" x="1067" y="-160.3" font-family="Times,serif" font-size="14.00">Website</text>
</g>
<!-- legend_build&#45;&gt;legend_website -->
</g>
</svg>
