<?xml version="1.0" encoding="UTF-8" standalone="no"?>
<!DOCTYPE svg PUBLIC "-//W3C//DTD SVG 1.1//EN"
 "http://www.w3.org/Graphics/SVG/1.1/DTD/svg11.dtd">
<!-- Generated by graphviz version 2.43.0 (0)
 -->
<!-- Title: %3 Pages: 1 -->
<svg width="1164pt" height="559pt"
 viewBox="0.00 0.00 1163.50 559.00" xmlns="http://www.w3.org/2000/svg" xmlns:xlink="http://www.w3.org/1999/xlink">
<g id="graph0" class="graph" transform="scale(1 1) rotate(0) translate(4 555)">
<title>%3</title>
<polygon fill="white" stroke="transparent" points="-4,4 -4,-555 1159.5,-555 1159.5,4 -4,4"/>
<g id="clust1" class="cluster">
<title>cluster_build_compiler</title>
<polygon fill="none" stroke="black" stroke-dasharray="1,5" points="500.5,-303 500.5,-467 763.5,-467 763.5,-303 500.5,-303"/>
<text text-anchor="middle" x="632" y="-451.8" font-family="Times,serif" font-size="14.00">travis:</text>
<text text-anchor="middle" x="632" y="-436.8" font-family="Times,serif" font-size="14.00">compiler and targets</text>
</g>
<g id="clust5" class="cluster">
<title>cluster_travis_ci_targets</title>
<polygon fill="none" stroke="black" stroke-dasharray="1,5" points="731.5,-138 731.5,-228 920.5,-228 920.5,-138 731.5,-138"/>
<text text-anchor="middle" x="826" y="-212.8" font-family="Times,serif" font-size="14.00">travis:</text>
<text text-anchor="middle" x="826" y="-197.8" font-family="Times,serif" font-size="14.00">ci_targets</text>
</g>
<g id="clust8" class="cluster">
<title>cluster_legend</title>
<polygon fill="none" stroke="black" stroke-dasharray="1,5" points="971.5,-138 971.5,-543 1147.5,-543 1147.5,-138 971.5,-138"/>
<text text-anchor="middle" x="1059.5" y="-527.8" font-family="Times,serif" font-size="14.00">Legend</text>
</g>
<!-- git_compiler -->
<g id="node1" class="node">
<title>git_compiler</title>
<g id="a_node1"><a xlink:href="https://github.com/kaitai-io/kaitai_struct_compiler" xlink:title="git:\ncompiler" target="_blank">
<polygon fill="#ffffba" stroke="transparent" points="445,-513 366,-513 366,-475 445,-475 445,-513"/>
<text text-anchor="middle" x="405.5" y="-497.8" font-family="Times,serif" font-size="14.00">git:</text>
<text text-anchor="middle" x="405.5" y="-482.8" font-family="Times,serif" font-size="14.00">compiler</text>
</a>
</g>
</g>
<!-- build_compiler_appveyor -->
<g id="node10" class="node">
<title>build_compiler_appveyor</title>
<g id="a_node10"><a xlink:href="https://ci.appveyor.com/project/kaitai-io/kaitai-struct" xlink:title="appveyor:\nbuild_compiler" target="_blank">
<polygon fill="#d0d0d0" stroke="transparent" points="303.5,-422 181.5,-422 181.5,-384 303.5,-384 303.5,-422"/>
<text text-anchor="middle" x="242.5" y="-406.8" font-family="Times,serif" font-size="14.00">appveyor:</text>
<text text-anchor="middle" x="242.5" y="-391.8" font-family="Times,serif" font-size="14.00">build_compiler</text>
</a>
</g>
</g>
<!-- git_compiler&#45;&gt;build_compiler_appveyor -->
<g id="edge2" class="edge">
<title>git_compiler&#45;&gt;build_compiler_appveyor</title>
<path fill="none" stroke="black" d="M372.51,-474.99C347.19,-461.16 312.04,-441.97 284.67,-427.03"/>
<polygon fill="black" stroke="black" points="286.17,-423.86 275.72,-422.14 282.82,-430 286.17,-423.86"/>
</g>
<!-- build_compiler -->
<g id="node14" class="node">
<title>build_compiler</title>
<polygon fill="lightgrey" stroke="transparent" points="630.5,-421 508.5,-421 508.5,-385 630.5,-385 630.5,-421"/>
<text text-anchor="middle" x="569.5" y="-399.3" font-family="Times,serif" font-size="14.00">build_compiler</text>
</g>
<!-- git_compiler&#45;&gt;build_compiler -->
<g id="edge1" class="edge">
<title>git_compiler&#45;&gt;build_compiler</title>
<path fill="none" stroke="black" d="M438.69,-474.99C464.76,-460.84 501.17,-441.08 528.96,-426"/>
<polygon fill="black" stroke="black" points="530.91,-428.92 538.03,-421.08 527.57,-422.77 530.91,-428.92"/>
</g>
<!-- git_tests -->
<g id="node2" class="node">
<title>git_tests</title>
<g id="a_node2"><a xlink:href="https://github.com/kaitai-io/kaitai_struct_tests" xlink:title="git:\ntests" target="_blank">
<polygon fill="#ffffba" stroke="transparent" points="825.5,-422 771.5,-422 771.5,-384 825.5,-384 825.5,-422"/>
<text text-anchor="middle" x="798.5" y="-406.8" font-family="Times,serif" font-size="14.00">git:</text>
<text text-anchor="middle" x="798.5" y="-391.8" font-family="Times,serif" font-size="14.00">tests</text>
</a>
</g>
</g>
<!-- build_formats -->
<g id="node16" class="node">
<title>build_formats</title>
<polygon fill="lightgrey" stroke="transparent" points="755,-347 640,-347 640,-311 755,-311 755,-347"/>
<text text-anchor="middle" x="697.5" y="-325.3" font-family="Times,serif" font-size="14.00">build_formats</text>
</g>
<!-- git_tests&#45;&gt;build_formats -->
<g id="edge6" class="edge">
<title>git_tests&#45;&gt;build_formats</title>
<path fill="none" stroke="black" d="M773.01,-383.83C759.95,-374.52 743.89,-363.07 729.95,-353.13"/>
<polygon fill="black" stroke="black" points="731.76,-350.13 721.59,-347.17 727.7,-355.83 731.76,-350.13"/>
</g>
<!-- build_ruby_1_9 -->
<g id="node17" class="node">
<title>build_ruby_1_9</title>
<polygon fill="lightgrey" stroke="transparent" points="817,-182 740,-182 740,-146 817,-146 817,-182"/>
<text text-anchor="middle" x="778.5" y="-160.3" font-family="Times,serif" font-size="14.00">ruby/1.9</text>
</g>
<!-- git_tests&#45;&gt;build_ruby_1_9 -->
<g id="edge7" class="edge">
<title>git_tests&#45;&gt;build_ruby_1_9</title>
<path fill="none" stroke="black" d="M796.96,-383.8C793.48,-342.48 784.95,-241.42 780.82,-192.46"/>
<polygon fill="black" stroke="black" points="784.29,-191.97 779.96,-182.3 777.31,-192.56 784.29,-191.97"/>
</g>
<!-- build_ruby_2_3 -->
<g id="node18" class="node">
<title>build_ruby_2_3</title>
<polygon fill="lightgrey" stroke="transparent" points="912,-182 835,-182 835,-146 912,-146 912,-182"/>
<text text-anchor="middle" x="873.5" y="-160.3" font-family="Times,serif" font-size="14.00">ruby/2.3</text>
</g>
<!-- git_tests&#45;&gt;build_ruby_2_3 -->
<g id="edge8" class="edge">
<title>git_tests&#45;&gt;build_ruby_2_3</title>
<path fill="none" stroke="black" d="M825.67,-386.24C858.59,-365.38 912.38,-325.19 934.5,-274 941.2,-258.5 940.37,-251.84 934.5,-236 927.84,-218.04 914.39,-201.57 901.8,-189.02"/>
<polygon fill="black" stroke="black" points="904.2,-186.47 894.55,-182.1 899.37,-191.54 904.2,-186.47"/>
</g>
<!-- git_ci_artifacts -->
<g id="node3" class="node">
<title>git_ci_artifacts</title>
<g id="a_node3"><a xlink:href="https://github.com/kaitai-io/ci_artifacts" xlink:title="git:\nci_artifacts" target="_blank">
<polygon fill="#baffc9" stroke="transparent" points="873,-110 778,-110 778,-72 873,-72 873,-110"/>
<text text-anchor="middle" x="825.5" y="-94.8" font-family="Times,serif" font-size="14.00">git:</text>
<text text-anchor="middle" x="825.5" y="-79.8" font-family="Times,serif" font-size="14.00">ci_artifacts</text>
</a>
</g>
</g>
<!-- dashboard -->
<g id="node11" class="node">
<title>dashboard</title>
<g id="a_node11"><a xlink:href="//ci.kaitai.io/" xlink:title="http://ci.kaitai.io/" target="_blank">
<polygon fill="#ffb86c" stroke="transparent" points="894.5,-36 756.5,-36 756.5,0 894.5,0 894.5,-36"/>
<text text-anchor="middle" x="825.5" y="-14.3" font-family="Times,serif" font-size="14.00">http://ci.kaitai.io/</text>
</a>
</g>
</g>
<!-- git_ci_artifacts&#45;&gt;dashboard -->
<g id="edge17" class="edge">
<title>git_ci_artifacts&#45;&gt;dashboard</title>
<path fill="none" stroke="black" d="M825.5,-71.72C825.5,-63.97 825.5,-54.79 825.5,-46.27"/>
<polygon fill="black" stroke="black" points="829,-46 825.5,-36 822,-46 829,-46"/>
</g>
<!-- git_runtime_ruby -->
<g id="node4" class="node">
<title>git_runtime_ruby</title>
<g id="a_node4"><a xlink:href="https://github.com/kaitai-io/kaitai_struct_ruby_runtime" xlink:title="git:\nruntime_ruby" target="_blank">
<polygon fill="#ffffba" stroke="transparent" points="925,-274 812,-274 812,-236 925,-236 925,-274"/>
<text text-anchor="middle" x="868.5" y="-258.8" font-family="Times,serif" font-size="14.00">git:</text>
<text text-anchor="middle" x="868.5" y="-243.8" font-family="Times,serif" font-size="14.00">runtime_ruby</text>
</a>
</g>
</g>
<!-- git_runtime_ruby&#45;&gt;build_ruby_1_9 -->
<g id="edge18" class="edge">
<title>git_runtime_ruby&#45;&gt;build_ruby_1_9</title>
<path fill="none" stroke="black" d="M836.41,-235.88C832.93,-233.41 829.55,-230.77 826.5,-228 814.46,-217.07 803.29,-202.79 794.77,-190.59"/>
<polygon fill="black" stroke="black" points="797.56,-188.47 789.06,-182.15 791.76,-192.39 797.56,-188.47"/>
</g>
<!-- git_runtime_ruby&#45;&gt;build_ruby_2_3 -->
<g id="edge19" class="edge">
<title>git_runtime_ruby&#45;&gt;build_ruby_2_3</title>
<path fill="none" stroke="black" d="M869.51,-235.99C870.22,-223.44 871.17,-206.48 871.97,-192.28"/>
<polygon fill="black" stroke="black" points="875.47,-192.26 872.54,-182.08 868.49,-191.87 875.47,-192.26"/>
</g>
<!-- artifact_deb -->
<g id="node5" class="node">
<title>artifact_deb</title>
<g id="a_node5"><a xlink:href="https://bintray.com/kaitai-io/debian_unstable/kaitai-struct-compiler" xlink:title="bintray:\ncompiler .deb" target="_blank">
<polygon fill="#baffc9" stroke="transparent" points="490.5,-348 376.5,-348 376.5,-310 490.5,-310 490.5,-348"/>
<text text-anchor="middle" x="433.5" y="-332.8" font-family="Times,serif" font-size="14.00">bintray:</text>
<text text-anchor="middle" x="433.5" y="-317.8" font-family="Times,serif" font-size="14.00">compiler .deb</text>
</a>
</g>
</g>
<!-- artifact_zip -->
<g id="node6" class="node">
<title>artifact_zip</title>
<g id="a_node6"><a xlink:href="https://bintray.com/kaitai-io/universal_unstable/kaitai-struct-compiler" xlink:title="bintray:\ncompiler .zip" target="_blank">
<polygon fill="#baffc9" stroke="transparent" points="240,-348 131,-348 131,-310 240,-310 240,-348"/>
<text text-anchor="middle" x="185.5" y="-332.8" font-family="Times,serif" font-size="14.00">bintray:</text>
<text text-anchor="middle" x="185.5" y="-317.8" font-family="Times,serif" font-size="14.00">compiler .zip</text>
</a>
</g>
</g>
<!-- artifact_js -->
<g id="node7" class="node">
<title>artifact_js</title>
<g id="a_node7"><a xlink:href="https://www.npmjs.com/package/kaitai-struct-compiler" xlink:title="npm:\ncompiler .js" target="_blank">
<polygon fill="#baffc9" stroke="transparent" points="358.5,-348 258.5,-348 258.5,-310 358.5,-310 358.5,-348"/>
<text text-anchor="middle" x="308.5" y="-332.8" font-family="Times,serif" font-size="14.00">npm:</text>
<text text-anchor="middle" x="308.5" y="-317.8" font-family="Times,serif" font-size="14.00">compiler .js</text>
</a>
</g>
</g>
<!-- abridged_1 -->
<g id="node13" class="node">
<title>abridged_1</title>
<text text-anchor="middle" x="308.5" y="-251.3" font-family="Times,serif" font-size="14.00">...</text>
</g>
<!-- artifact_js&#45;&gt;abridged_1 -->
<g id="edge20" class="edge">
<title>artifact_js&#45;&gt;abridged_1</title>
<path fill="none" stroke="black" d="M308.5,-309.83C308.5,-301.89 308.5,-292.41 308.5,-283.63"/>
<polygon fill="black" stroke="black" points="312,-283.42 308.5,-273.42 305,-283.42 312,-283.42"/>
</g>
<!-- artifact_msi -->
<g id="node8" class="node">
<title>artifact_msi</title>
<g id="a_node8"><a xlink:href="https://ci.appveyor.com/project/kaitai-io/kaitai-struct/build/artifacts" xlink:title="appveyor:\ncompiler .msi" target="_blank">
<polygon fill="#baffc9" stroke="transparent" points="113,-348 0,-348 0,-310 113,-310 113,-348"/>
<text text-anchor="middle" x="56.5" y="-332.8" font-family="Times,serif" font-size="14.00">appveyor:</text>
<text text-anchor="middle" x="56.5" y="-317.8" font-family="Times,serif" font-size="14.00">compiler .msi</text>
</a>
</g>
</g>
<!-- artifact_ci_targets -->
<g id="node9" class="node">
<title>artifact_ci_targets</title>
<g id="a_node9"><a xlink:href="https://github.com/kaitai-io/ci_targets" xlink:title="git:\nci_targets" target="_blank">
<polygon fill="#eaffe9" stroke="transparent" points="755,-274 668,-274 668,-236 755,-236 755,-274"/>
<text text-anchor="middle" x="711.5" y="-258.8" font-family="Times,serif" font-size="14.00">git:</text>
<text text-anchor="middle" x="711.5" y="-243.8" font-family="Times,serif" font-size="14.00">ci_targets</text>
</a>
</g>
</g>
<!-- artifact_ci_targets&#45;&gt;build_ruby_1_9 -->
<g id="edge13" class="edge">
<title>artifact_ci_targets&#45;&gt;build_ruby_1_9</title>
<path fill="none" stroke="black" d="M725.06,-235.99C734.97,-222.83 748.54,-204.8 759.52,-190.21"/>
<polygon fill="black" stroke="black" points="762.43,-192.17 765.64,-182.08 756.83,-187.96 762.43,-192.17"/>
</g>
<!-- artifact_ci_targets&#45;&gt;build_ruby_2_3 -->
<g id="edge14" class="edge">
<title>artifact_ci_targets&#45;&gt;build_ruby_2_3</title>
<path fill="none" stroke="black" d="M755.04,-245.67C784.95,-239.69 820.34,-232 826.5,-228 840.5,-218.91 851.85,-204.12 859.89,-191.16"/>
<polygon fill="black" stroke="black" points="863.13,-192.55 865.14,-182.15 857.08,-189.02 863.13,-192.55"/>
</g>
<!-- build_compiler_appveyor&#45;&gt;artifact_msi -->
<g id="edge3" class="edge">
<title>build_compiler_appveyor&#45;&gt;artifact_msi</title>
<path fill="none" stroke="black" d="M195.56,-383.83C170.36,-374.07 139.11,-361.98 112.62,-351.72"/>
<polygon fill="black" stroke="black" points="113.69,-348.38 103.1,-348.04 111.16,-354.91 113.69,-348.38"/>
</g>
<!-- web_ide_unstable -->
<g id="node12" class="node">
<title>web_ide_unstable</title>
<g id="a_node12"><a xlink:href="https://ide.kaitai.io/devel/" xlink:title="https://ide.kaitai.io/devel/" target="_blank">
<polygon fill="#ffb86c" stroke="transparent" points="407.5,-182 209.5,-182 209.5,-146 407.5,-146 407.5,-182"/>
<text text-anchor="middle" x="308.5" y="-160.3" font-family="Times,serif" font-size="14.00">https://ide.kaitai.io/devel/</text>
</a>
</g>
</g>
<!-- abridged_1&#45;&gt;web_ide_unstable -->
<g id="edge21" class="edge">
<title>abridged_1&#45;&gt;web_ide_unstable</title>
<path fill="none" stroke="black" d="M308.5,-236.84C308.5,-224.28 308.5,-206.98 308.5,-192.5"/>
<polygon fill="black" stroke="black" points="312,-192.11 308.5,-182.11 305,-192.11 312,-192.11"/>
</g>
<!-- build_compiler&#45;&gt;artifact_deb -->
<g id="edge9" class="edge">
<title>build_compiler&#45;&gt;artifact_deb</title>
<path fill="none" stroke="black" d="M537.27,-384.94C519.23,-375.39 496.5,-363.35 476.91,-352.98"/>
<polygon fill="black" stroke="black" points="478.35,-349.78 467.88,-348.2 475.08,-355.97 478.35,-349.78"/>
</g>
<!-- build_compiler&#45;&gt;artifact_zip -->
<g id="edge10" class="edge">
<title>build_compiler&#45;&gt;artifact_zip</title>
<path fill="none" stroke="black" d="M508.37,-393.67C445.84,-384.7 345.75,-369.12 250.06,-348"/>
<polygon fill="black" stroke="black" points="250.74,-344.57 240.21,-345.8 249.21,-351.4 250.74,-344.57"/>
</g>
<!-- build_compiler&#45;&gt;artifact_js -->
<g id="edge11" class="edge">
<title>build_compiler&#45;&gt;artifact_js</title>
<path fill="none" stroke="black" d="M508.35,-386.25C470.57,-376.37 420.85,-363.14 368.48,-348.24"/>
<polygon fill="black" stroke="black" points="369.25,-344.82 358.68,-345.44 367.33,-351.55 369.25,-344.82"/>
</g>
<!-- test_compiler -->
<g id="node15" class="node">
<title>test_compiler</title>
<polygon fill="lightgrey" stroke="transparent" points="622,-347 509,-347 509,-311 622,-311 622,-347"/>
<text text-anchor="middle" x="565.5" y="-325.3" font-family="Times,serif" font-size="14.00">test_compiler</text>
</g>
<!-- build_compiler&#45;&gt;test_compiler -->
<g id="edge4" class="edge">
<title>build_compiler&#45;&gt;test_compiler</title>
<path fill="none" stroke="black" d="M568.55,-384.94C568.1,-376.81 567.55,-366.88 567.04,-357.7"/>
<polygon fill="black" stroke="black" points="570.52,-357.23 566.47,-347.44 563.53,-357.62 570.52,-357.23"/>
</g>
<!-- build_compiler&#45;&gt;build_formats -->
<g id="edge5" class="edge">
<title>build_compiler&#45;&gt;build_formats</title>
<path fill="none" stroke="black" d="M599.83,-384.94C617.24,-375.15 639.3,-362.74 658.04,-352.2"/>
<polygon fill="black" stroke="black" points="659.94,-355.14 666.94,-347.19 656.51,-349.04 659.94,-355.14"/>
</g>
<!-- build_formats&#45;&gt;artifact_ci_targets -->
<g id="edge12" class="edge">
<title>build_formats&#45;&gt;artifact_ci_targets</title>
<path fill="none" stroke="black" d="M700.82,-310.94C702.38,-302.9 704.29,-293.1 706.05,-284.02"/>
<polygon fill="black" stroke="black" points="709.49,-284.68 707.96,-274.2 702.62,-283.35 709.49,-284.68"/>
</g>
<!-- build_ruby_1_9&#45;&gt;git_ci_artifacts -->
<g id="edge15" class="edge">
<title>build_ruby_1_9&#45;&gt;git_ci_artifacts</title>
<path fill="none" stroke="black" d="M789.88,-145.81C795.31,-137.6 801.94,-127.59 808,-118.44"/>
<polygon fill="black" stroke="black" points="810.97,-120.29 813.57,-110.02 805.13,-116.43 810.97,-120.29"/>
</g>
<!-- build_ruby_2_3&#45;&gt;git_ci_artifacts -->
<g id="edge16" class="edge">
<title>build_ruby_2_3&#45;&gt;git_ci_artifacts</title>
<path fill="none" stroke="black" d="M861.88,-145.81C856.33,-137.6 849.56,-127.59 843.38,-118.44"/>
<polygon fill="black" stroke="black" points="846.18,-116.34 837.68,-110.02 840.38,-120.26 846.18,-116.34"/>
</g>
<!-- legend_artifact_int -->
<g id="node19" class="node">
<title>legend_artifact_int</title>
<polygon fill="#eaffe9" stroke="transparent" points="1139.5,-512 979.5,-512 979.5,-476 1139.5,-476 1139.5,-512"/>
<text text-anchor="middle" x="1059.5" y="-490.3" font-family="Times,serif" font-size="14.00">Intemediate artifact</text>
</g>
<!-- legend_artifact_final -->
<g id="node20" class="node">
<title>legend_artifact_final</title>
<polygon fill="#baffc9" stroke="transparent" points="1114.5,-421 1004.5,-421 1004.5,-385 1114.5,-385 1114.5,-421"/>
<text text-anchor="middle" x="1059.5" y="-399.3" font-family="Times,serif" font-size="14.00">Final artifact</text>
</g>
<!-- legend_artifact_int&#45;&gt;legend_artifact_final -->
<!-- legend_source -->
<g id="node21" class="node">
<title>legend_source</title>
<polygon fill="#ffffba" stroke="transparent" points="1111,-347 1008,-347 1008,-311 1111,-311 1111,-347"/>
<text text-anchor="middle" x="1059.5" y="-325.3" font-family="Times,serif" font-size="14.00">Source repo</text>
</g>
<!-- legend_artifact_final&#45;&gt;legend_source -->
<!-- legend_build -->
<g id="node22" class="node">
<title>legend_build</title>
<polygon fill="#d0d0d0" stroke="transparent" points="1116,-273 1003,-273 1003,-237 1116,-237 1116,-273"/>
<text text-anchor="middle" x="1059.5" y="-251.3" font-family="Times,serif" font-size="14.00">Build process</text>
</g>
<!-- legend_source&#45;&gt;legend_build -->
<!-- legend_website -->
<g id="node23" class="node">
<title>legend_website</title>
<polygon fill="#ffb86c" stroke="transparent" points="1096.5,-182 1022.5,-182 1022.5,-146 1096.5,-146 1096.5,-182"/>
<text text-anchor="middle" x="1059.5" y="-160.3" font-family="Times,serif" font-size="14.00">Website</text>
</g>
<!-- legend_build&#45;&gt;legend_website -->
</g>
</svg>
