<?xml version="1.0" encoding="UTF-8" standalone="no"?>
<!DOCTYPE svg PUBLIC "-//W3C//DTD SVG 1.1//EN"
 "http://www.w3.org/Graphics/SVG/1.1/DTD/svg11.dtd">
<!-- Generated by graphviz version 2.38.0 (20140413.2041)
 -->
<!-- Title: %3 Pages: 1 -->
<svg width="441pt" height="210pt"
 viewBox="0.00 0.00 441.00 210.00" xmlns="http://www.w3.org/2000/svg" xmlns:xlink="http://www.w3.org/1999/xlink">
<g id="graph0" class="graph" transform="scale(1 1) rotate(0) translate(4 206)">
<title>%3</title>
<polygon fill="white" stroke="none" points="-4,4 -4,-206 437,-206 437,4 -4,4"/>
<g id="clust1" class="cluster"><title>cluster__opcode_jmp</title>
<polygon fill="none" stroke="black" stroke-dasharray="1,5" points="8,-105 8,-194 194,-194 194,-105 8,-105"/>
<text text-anchor="middle" x="101" y="-178.8" font-family="Times,serif" font-size="14.00">Meh::OpcodeJmp</text>
</g>
<g id="clust2" class="cluster"><title>cluster__opcode_push</title>
<polygon fill="none" stroke="black" stroke-dasharray="1,5" points="11,-8 11,-97 191,-97 191,-8 11,-8"/>
<text text-anchor="middle" x="101" y="-81.8" font-family="Times,serif" font-size="14.00">OpcodePush</text>
</g>
<g id="clust3" class="cluster"><title>cluster__arg</title>
<polygon fill="none" stroke="black" stroke-dasharray="1,5" points="214,-40 214,-151 425,-151 425,-40 214,-40"/>
<text text-anchor="middle" x="319.5" y="-135.8" font-family="Times,serif" font-size="14.00">Arg</text>
</g>
<!-- opcode_jmp__seq -->
<g id="node1" class="node"><title>opcode_jmp__seq</title>
<polygon fill="#e0ffe0" stroke="none" points="24,-138 24,-159 55,-159 55,-138 24,-138"/>
<polygon fill="none" stroke="black" points="24,-138 24,-159 55,-159 55,-138 24,-138"/>
<text text-anchor="start" x="27" y="-144.8" font-family="Times,serif" font-size="14.00">pos</text>
<polygon fill="#e0ffe0" stroke="none" points="55,-138 55,-159 89,-159 89,-138 55,-138"/>
<polygon fill="none" stroke="black" points="55,-138 55,-159 89,-159 89,-138 55,-138"/>
<text text-anchor="start" x="58" y="-144.8" font-family="Times,serif" font-size="14.00">size</text>
<polygon fill="#e0ffe0" stroke="none" points="89,-138 89,-159 127,-159 127,-138 89,-138"/>
<polygon fill="none" stroke="black" points="89,-138 89,-159 127,-159 127,-138 89,-138"/>
<text text-anchor="start" x="92" y="-144.8" font-family="Times,serif" font-size="14.00">type</text>
<polygon fill="#e0ffe0" stroke="none" points="127,-138 127,-159 178,-159 178,-138 127,-138"/>
<polygon fill="none" stroke="black" points="127,-138 127,-159 178,-159 178,-138 127,-138"/>
<text text-anchor="start" x="145.5" y="-144.8" font-family="Times,serif" font-size="14.00">id</text>
<polygon fill="none" stroke="black" points="24,-117 24,-138 55,-138 55,-117 24,-117"/>
<text text-anchor="start" x="34.5" y="-123.8" font-family="Times,serif" font-size="14.00">0</text>
<polygon fill="none" stroke="black" points="55,-117 55,-138 89,-138 89,-117 55,-117"/>
<text text-anchor="start" x="65" y="-123.8" font-family="Times,serif" font-size="14.00">...</text>
<polygon fill="none" stroke="black" points="89,-117 89,-138 127,-138 127,-117 89,-117"/>
<text text-anchor="start" x="94.5" y="-123.8" font-family="Times,serif" font-size="14.00">Arg</text>
<polygon fill="none" stroke="black" points="127,-117 127,-138 178,-138 178,-117 127,-117"/>
<text text-anchor="start" x="130" y="-123.8" font-family="Times,serif" font-size="14.00">target</text>
</g>
<!-- arg__seq -->
<g id="node3" class="node"><title>arg__seq</title>
<polygon fill="#e0ffe0" stroke="none" points="230.5,-94 230.5,-115 261.5,-115 261.5,-94 230.5,-94"/>
<polygon fill="none" stroke="black" points="230.5,-94 230.5,-115 261.5,-115 261.5,-94 230.5,-94"/>
<text text-anchor="start" x="233.5" y="-100.8" font-family="Times,serif" font-size="14.00">pos</text>
<polygon fill="#e0ffe0" stroke="none" points="261.5,-94 261.5,-115 295.5,-115 295.5,-94 261.5,-94"/>
<polygon fill="none" stroke="black" points="261.5,-94 261.5,-115 295.5,-115 295.5,-94 261.5,-94"/>
<text text-anchor="start" x="264.5" y="-100.8" font-family="Times,serif" font-size="14.00">size</text>
<polygon fill="#e0ffe0" stroke="none" points="295.5,-94 295.5,-115 333.5,-115 333.5,-94 295.5,-94"/>
<polygon fill="none" stroke="black" points="295.5,-94 295.5,-115 333.5,-115 333.5,-94 295.5,-94"/>
<text text-anchor="start" x="298.5" y="-100.8" font-family="Times,serif" font-size="14.00">type</text>
<polygon fill="#e0ffe0" stroke="none" points="333.5,-94 333.5,-115 409.5,-115 409.5,-94 333.5,-94"/>
<polygon fill="none" stroke="black" points="333.5,-94 333.5,-115 409.5,-115 409.5,-94 333.5,-94"/>
<text text-anchor="start" x="364.5" y="-100.8" font-family="Times,serif" font-size="14.00">id</text>
<polygon fill="none" stroke="black" points="230.5,-73 230.5,-94 261.5,-94 261.5,-73 230.5,-73"/>
<text text-anchor="start" x="241" y="-79.8" font-family="Times,serif" font-size="14.00">0</text>
<polygon fill="none" stroke="black" points="261.5,-73 261.5,-94 295.5,-94 295.5,-73 261.5,-73"/>
<text text-anchor="start" x="273.5" y="-79.8" font-family="Times,serif" font-size="14.00">1</text>
<polygon fill="none" stroke="black" points="295.5,-73 295.5,-94 333.5,-94 333.5,-73 295.5,-73"/>
<text text-anchor="start" x="305" y="-79.8" font-family="Times,serif" font-size="14.00">u1</text>
<polygon fill="none" stroke="black" points="333.5,-73 333.5,-94 409.5,-94 409.5,-73 333.5,-73"/>
<text text-anchor="start" x="339.5" y="-79.8" font-family="Times,serif" font-size="14.00">arg_type</text>
<polygon fill="none" stroke="black" points="230.5,-52 230.5,-73 261.5,-73 261.5,-52 230.5,-52"/>
<text text-anchor="start" x="241" y="-58.8" font-family="Times,serif" font-size="14.00">1</text>
<polygon fill="none" stroke="black" points="261.5,-52 261.5,-73 295.5,-73 295.5,-52 261.5,-52"/>
<text text-anchor="start" x="273.5" y="-58.8" font-family="Times,serif" font-size="14.00">1</text>
<polygon fill="none" stroke="black" points="295.5,-52 295.5,-73 333.5,-73 333.5,-52 295.5,-52"/>
<text text-anchor="start" x="305" y="-58.8" font-family="Times,serif" font-size="14.00">u1</text>
<polygon fill="none" stroke="black" points="333.5,-52 333.5,-73 409.5,-73 409.5,-52 333.5,-52"/>
<text text-anchor="start" x="336.5" y="-58.8" font-family="Times,serif" font-size="14.00">arg_value</text>
</g>
<!-- opcode_jmp__seq&#45;&gt;arg__seq -->
<g id="edge1" class="edge"><title>opcode_jmp__seq:target_type&#45;&gt;arg__seq</title>
<path fill="none" stroke="black" stroke-width="2" d="M179,-127C192.867,-127 207.18,-125.035 221.114,-121.946"/>
<polygon fill="black" stroke="black" stroke-width="2" points="222.285,-125.264 231.181,-119.51 220.639,-118.46 222.285,-125.264"/>
</g>
<!-- opcode_push__seq -->
<g id="node2" class="node"><title>opcode_push__seq</title>
<polygon fill="#e0ffe0" stroke="none" points="27,-41 27,-62 58,-62 58,-41 27,-41"/>
<polygon fill="none" stroke="black" points="27,-41 27,-62 58,-62 58,-41 27,-41"/>
<text text-anchor="start" x="30" y="-47.8" font-family="Times,serif" font-size="14.00">pos</text>
<polygon fill="#e0ffe0" stroke="none" points="58,-41 58,-62 92,-62 92,-41 58,-41"/>
<polygon fill="none" stroke="black" points="58,-41 58,-62 92,-62 92,-41 58,-41"/>
<text text-anchor="start" x="61" y="-47.8" font-family="Times,serif" font-size="14.00">size</text>
<polygon fill="#e0ffe0" stroke="none" points="92,-41 92,-62 130,-62 130,-41 92,-41"/>
<polygon fill="none" stroke="black" points="92,-41 92,-62 130,-62 130,-41 92,-41"/>
<text text-anchor="start" x="95" y="-47.8" font-family="Times,serif" font-size="14.00">type</text>
<polygon fill="#e0ffe0" stroke="none" points="130,-41 130,-62 175,-62 175,-41 130,-41"/>
<polygon fill="none" stroke="black" points="130,-41 130,-62 175,-62 175,-41 130,-41"/>
<text text-anchor="start" x="145.5" y="-47.8" font-family="Times,serif" font-size="14.00">id</text>
<polygon fill="none" stroke="black" points="27,-20 27,-41 58,-41 58,-20 27,-20"/>
<text text-anchor="start" x="37.5" y="-26.8" font-family="Times,serif" font-size="14.00">0</text>
<polygon fill="none" stroke="black" points="58,-20 58,-41 92,-41 92,-20 58,-20"/>
<text text-anchor="start" x="68" y="-26.8" font-family="Times,serif" font-size="14.00">...</text>
<polygon fill="none" stroke="black" points="92,-20 92,-41 130,-41 130,-20 92,-20"/>
<text text-anchor="start" x="97.5" y="-26.8" font-family="Times,serif" font-size="14.00">Arg</text>
<polygon fill="none" stroke="black" points="130,-20 130,-41 175,-41 175,-20 130,-20"/>
<text text-anchor="start" x="133" y="-26.8" font-family="Times,serif" font-size="14.00">value</text>
</g>
<!-- opcode_push__seq&#45;&gt;arg__seq -->
<g id="edge2" class="edge"><title>opcode_push__seq:value_type&#45;&gt;arg__seq</title>
<path fill="none" stroke="black" stroke-width="2" d="M176,-30C199.161,-30 223.146,-36.315 244.683,-44.626"/>
<polygon fill="black" stroke="black" stroke-width="2" points="243.49,-47.9191 254.072,-48.4327 246.12,-41.4319 243.49,-47.9191"/>
</g>
</g>
</svg>
